<?xml version="1.0" encoding="utf-8"?>
<!-- Generator: Adobe Illustrator 23.0.2, SVG Export Plug-In . SVG Version: 6.00 Build 0)  -->
<svg version="1.1" id="Capa_1" xmlns="http://www.w3.org/2000/svg" xmlns:xlink="http://www.w3.org/1999/xlink" x="0px" y="0px"
	 viewBox="0 0 1008 612" style="enable-background:new 0 0 1008 612;" xml:space="preserve">
<style type="text/css">
	.st0{fill:none;
	stroke:transparent;
	stroke-width:4;
	stroke-miterlimit:10;
			-webkit-animation: abajo 5s forwards 6s;
			-moz-animation: abajo 5s forwards 6s;
			-o-animation: abajo 5s forwards 6s;
			animation: abajo 5s forwards 6s;

	}

	.st1{fill:transparent;
			-webkit-animation: arriba 5s forwards 6s;
			-moz-animation: arriba 5s forwards 6s;
			-o-animation: arriba 5s forwards 6s;
			animation: arriba 5s forwards 6s;
	}

	.st2{fill:transparent;
			-webkit-animation: letras 5s forwards 10s;
			-moz-animation: letras 5s forwards 10s;
			-o-animation: letras 5s forwards 10s;
			animation: letras 5s forwards 10s;
	}
	
	
	.st3{fill:transparent;
			-webkit-animation: liston 2s forwards 4s;
			-moz-animation: liston 2s forwards 4s;
			-o-animation: liston 2s forwards 4s;
			animation: liston 2s forwards 4s;
	}
	
	.st4{fill:transparent;
			-webkit-animation: lichis 2s forwards 8s;
			-moz-animation: lichis 2s forwards 8s;
			-o-animation: lichis 2s forwards 8s;
			animation: lichis 2s forwards 8s;
	}
	
	.st5{fill:none;
	stroke:#fff;
	stroke-width:1.5;
	stroke-dasharray: 5000;
	stroke-dashoffset: 0;
	stroke-miterlimit:10;
		-webkit-animation: animacion 15s forwards 0s;
		-moz-animation: animacion 15s forwards 0s;
		-o-animation: animacion 15s forwards 0s;
		animation: animacion 15s forwards 0s;
	}

	.st6{fill:transparent;
			-webkit-animation: togo 5s forwards 11s;
			-moz-animation: togo 5s forwards 11s;
			-o-animation: togo 5s forwards 11s;
			animation: togo 5s forwards 11s;
	}
	
	@-webkit-keyframes animacion {
			0% {
				stroke-dashoffset: 5000;
			}
			90% {
				stroke: #fff;
			}

			100% {
				stroke-dashoffset: 0;
				stroke: transparent;
			}
		}

		@-keyframes animacion {
			0% {
				stroke-dashoffset: 5000;
			}
			90% {
				stroke: #fff;
			}

			100% {
				stroke-dashoffset: 0;
				stroke: transparent;
			}
		}
		 
		@-webkit-keyframes lichis {
			from {
				fill:transparent;
			}

			to {
				fill:url(#SVGID_1_);
			}
		}
		@-keyframes lichis {
			from {
				fill:transparent;
			}

			to {
				fill:url(#SVGID_1_);
			}
		}

		@-webkit-keyframes liston {
			from {
				fill:transparent;
			}

			to {
				fill:url(#listonr_1_);
			}
		}
		@-keyframes liston {
			from {
				fill:transparent;
			}

			to {
				fill:url(#listonr_1_);
			}
		}

		@-webkit-keyframes arriba {
			from {
				fill:transparent;
			}

			to {
				fill:#f00;
			}
		}

		@-keyframes arriba {
			from {
				fill:transparent;
			}

			to {
				fill:#f00;
			}
		}
		@-webkit-keyframes abajo {
			from {
				stroke:transparent;
			}

			to {
				stroke:#f00;
			}
		}

		@-keyframes abajo {
			from {
				stroke:transparent;
			}

			to {
				stroke:#f00;
			}
		}
		@-webkit-keyframes letras {
			from {
				fill:transparent;
			}

			to {
				fill:#fff;
			}
		}

		@-keyframes letras {
			from {
				fill:transparent;
			}

			to {
				fill:#fff;
			}
		}
		@-webkit-keyframes togo {
			from {
				fill:transparent;
			}

			to {
				fill:#f00;
			}
		}

		@-keyframes togo {
			from {
				fill:transparent;
			}

			to {
				fill:#f00;
			}
		}
</style>
<g id="Capa_6">
	<path class="st6" id="togo" d="M508.6,402c3-0.4,5.5-0.4,7.5-0.1s3.7,0.8,5,1.4s2.2,1.3,2.8,2.1c0.6,0.8,0.9,1.5,1,2.1s0,1.1-0.4,1.6
		c-0.3,0.5-0.8,0.8-1.4,0.8c-0.4,0.1-0.8,0-1-0.1s-0.4-0.2-0.4-0.4c-0.1-0.2-0.1-0.4-0.1-0.7c0-0.2,0-0.5,0.1-0.7c0-0.1,0-0.3,0-0.4
		c0-0.3-0.2-0.7-0.5-1s-0.8-0.7-1.3-0.9c-0.6-0.3-1.3-0.4-2.1-0.6c-0.8-0.1-1.7-0.1-2.7,0c-4.1,0.5-7.9,1.3-11.5,2.3
		s-6.9,2.2-9.9,3.5s-5.8,2.6-8.2,3.9c-2.5,1.3-4.6,2.6-6.5,3.7c-0.4,0.2-0.6,0.4-0.8,0.5c-0.2,0.1-0.3,0.2-0.4,0.3
		c-0.1,0.1-0.2,0.1-0.4,0.2c-0.1,0.1-0.3,0.2-0.6,0.4c1.8,0.1,3.5,0.5,5,1c1.5,0.6,2.7,1.3,3.5,2.3c0.4-1,0.7-1.9,1-2.7
		c0.3-0.9,0.6-1.6,0.8-2.3c0.2-0.7,0.4-1.2,0.5-1.7c0.1-0.4,0.2-0.7,0.2-0.9c-0.1-0.4,0.1-0.6,0.6-0.6c0.4,0,0.9,0.1,1.5,0.4
		s1.1,0.6,1.6,1.1c0.5,0.4,0.8,0.9,0.8,1.3c0.1,0.5,0,1.2-0.2,2s-0.5,1.8-0.8,2.8s-0.8,2.2-1.2,3.4c-0.5,1.2-0.9,2.4-1.4,3.6
		s-1,2.5-1.4,3.7c-0.5,1.2-0.9,2.3-1.2,3.4s-0.6,2-0.8,2.8c-0.2,0.8-0.3,1.4-0.2,1.9c0.1,0.8,0.2,1.5,0.4,2.1
		c0.2,0.6,0.3,1.1,0.5,1.5l0,0c0.1,0.4,0.2,0.7,0.3,1c0.1,0.3,0.1,0.5,0.1,0.7s-0.1,0.3-0.3,0.4c-0.2,0.1-0.5,0.2-0.9,0.2
		c-0.4,0.1-0.9,0-1.5-0.3s-1.1-0.6-1.7-1.1c-0.5-0.5-1-1.2-1.4-1.9c-0.4-0.8-0.7-1.7-0.8-2.7c-0.1-0.6,0-1.4,0.2-2.4
		s0.5-2.1,0.9-3.4s0.8-2.6,1.3-4s1-2.8,1.6-4.2c0-0.2,0-0.4,0.1-0.5c0-0.2,0-0.3,0-0.4c-0.1-0.5-0.3-1-0.8-1.5
		c-0.4-0.4-1-0.8-1.7-1.2c-0.7-0.3-1.4-0.6-2.3-0.8c-0.9-0.2-1.7-0.4-2.7-0.5c-0.9-0.1-1.8-0.2-2.7-0.2c-0.9,0-1.7,0-2.5,0.1
		c-0.5,0.1-1.1,0-1.6-0.2s-1-0.4-1.5-0.7c-0.4-0.3-0.8-0.6-1.1-1c-0.3-0.4-0.5-0.7-0.5-1.1c-0.1-0.5,0.1-0.9,0.4-1.2
		c0.3-0.4,0.9-0.6,1.7-0.7c0.3,0,1-0.3,2-0.8s2.3-1.1,3.9-1.9c1.3-0.7,2.8-1.4,4.5-2.3c1.6-0.8,3.4-1.7,5.2-2.5
		c1.9-0.9,3.8-1.7,5.8-2.6c2-0.8,4.1-1.6,6.2-2.3c2.1-0.7,4.2-1.4,6.3-1.9C504.6,402.6,506.7,402.2,508.6,402z M513,423.5
		c0.1-0.2,0.2-0.3,0.5-0.4c0.3,0,0.5,0,0.7,0.1s0.5,0.2,0.6,0.4s0.2,0.4,0.2,0.6c-0.1,0.3-0.3,0.8-0.5,1.3s-0.5,1.2-0.9,1.9
		c-0.4,0.7-0.8,1.4-1.3,2.1s-1.1,1.4-1.7,2.1s-1.3,1.3-2.1,1.8c-0.8,0.5-1.6,0.9-2.5,1.2c-0.8,1.5-1.8,2.8-2.9,3.8s-2.4,1.6-3.7,1.8
		c-0.7,0.1-1.4,0-2.2-0.2c-0.7-0.2-1.4-0.5-2-1s-1.1-1.1-1.6-1.9c-0.4-0.8-0.7-1.7-0.9-2.9c-0.1-1-0.1-2.2,0.2-3.3
		c0.3-1.2,0.6-2.2,1-3.2s0.9-1.8,1.4-2.5s0.9-1,1.2-1c0.2,0,0.5,0,0.7,0c0.3,0,0.5,0,0.8,0.1c0.3-0.6,0.7-1.1,1.1-1.6s0.8-1,1.3-1.4
		s1-0.7,1.5-1s1.1-0.4,1.6-0.5c0.8-0.1,1.5-0.1,2.1,0s1,0.3,1.4,0.6s0.6,0.7,0.8,1.1c0.2,0.5,0.3,1,0.4,1.5c0.4,2.9,0.1,5.7-0.9,8.5
		c0.7-0.5,1.4-1.2,2-2s1.2-1.5,1.7-2.3s0.9-1.5,1.2-2.2S512.9,423.8,513,423.5z M499.3,437.7c0.8-0.1,1.5-0.4,2.1-0.9
		s1.2-1.1,1.7-1.9c-0.9-0.1-1.7-0.4-2.5-0.7c-0.8-0.4-1.5-0.8-2.1-1.3c-0.2,0.7-0.4,1.4-0.5,2.1s-0.1,1.2-0.1,1.7
		c0,0.4,0.2,0.7,0.4,0.8C498.5,437.7,498.9,437.7,499.3,437.7z M502.3,431c0.1,0.5,0.2,0.9,0.5,1.2c0.3,0.3,0.7,0.5,1.4,0.5
		c0.3-0.8,0.6-1.6,0.9-2.5c0.2-0.9,0.4-1.7,0.6-2.5c0.1-0.8,0.2-1.6,0.3-2.3c0-0.7,0-1.4,0-1.9c-0.1-0.9-0.3-1.3-0.5-1.3
		s-0.5,0.3-0.9,1c-0.4,0.6-0.8,1.4-1.1,2.3s-0.7,1.8-0.9,2.8C502.3,429.3,502.2,430.2,502.3,431z M546.1,418.4c0.5-0.1,1,0,1.4,0.1
		c0.5,0.1,0.9,0.4,1.2,0.7c0.3,0.3,0.6,0.6,0.9,1.1c0.2,0.4,0.4,0.9,0.4,1.3c0.1,1.1,0.1,2.4,0,3.9s-0.4,3-0.8,4.6
		c-0.4,1.6-0.9,3.3-1.5,5s-1.4,3.3-2.2,5c-0.8,1.6-1.7,3.1-2.7,4.6c-1,1.4-2.1,2.7-3.2,3.9c-1.1,1.1-2.3,2.1-3.6,2.8
		c-1.2,0.7-2.5,1.2-3.9,1.3c-1,0.1-1.8,0.1-2.5,0s-1.3-0.4-1.7-0.7c-0.4-0.3-0.8-0.7-1-1.1s-0.4-0.9-0.4-1.3c0-0.2,0-0.4,0-0.6
		s0-0.4,0.1-0.6c0.1-0.6,0.4-1.1,0.7-1.4s0.6-0.4,0.9-0.5c0.5-0.1,0.9,0.1,1.2,0.4s0.4,0.8,0.2,1.2c-0.1,0.2-0.1,0.4-0.1,0.5
		s0,0.3,0,0.4c0.1,0.7,0.8,0.9,2.1,0.7c1.2-0.1,2.2-0.6,3.3-1.5c1-0.8,2-1.9,2.8-3.2c0.9-1.3,1.7-2.7,2.4-4.3c0.7-1.6,1.4-3.3,1.9-5
		c0.6-1.7,1.1-3.4,1.5-5c0.4-1.7,0.7-3.2,1-4.6c-0.6,0.9-1.3,2-2,3.1s-1.5,2.2-2.3,3.4c-0.8,1.1-1.6,2.2-2.5,3.3s-1.7,2-2.5,2.8
		s-1.6,1.5-2.3,2c-0.8,0.5-1.4,0.8-2.1,0.9c-2,0.2-3.7-0.5-5.2-2.1c-1.4-1.7-2.4-4.4-2.9-8.3c-0.3-2.1-0.2-4.2,0.1-6.4
		c0.3-2.2,0.8-4.4,1.6-6.6s1.8-4.2,3-6.2s2.6-3.7,4.1-5.3s3.3-2.8,5.1-3.9c1.9-1,3.8-1.7,5.9-1.9c2.1-0.3,3.8,0,5,0.8
		c1.3,0.8,2,2.1,2.2,3.9c0.2,1.2,0.1,2.4-0.1,3.6s-0.6,2.2-1,3.1s-0.8,1.6-1.3,2.2c-0.4,0.6-0.8,0.9-1,0.9s-0.3-0.1-0.4-0.3
		c-0.1-0.2-0.1-0.4-0.2-0.7c0-0.3,0-0.5,0-0.7s0.1-0.3,0.1-0.3c0.1,0,0.3-0.2,0.4-0.5c0.1-0.3,0.2-0.8,0.3-1.3s0.1-1.1,0.2-1.7
		c0-0.6,0-1.3-0.1-1.9c0-0.3-0.1-0.6-0.2-1c-0.1-0.4-0.3-0.7-0.5-1s-0.5-0.6-0.7-0.7c-0.3-0.2-0.6-0.3-1-0.2
		c-1.9,0.2-3.6,0.9-5.2,2.1c-1.6,1.2-3,2.7-4.2,4.4c-1.2,1.8-2.3,3.7-3.1,5.9c-0.9,2.2-1.6,4.3-2.1,6.5s-0.9,4.2-1,6.2
		c-0.2,2-0.2,3.7,0,5.2c0.1,1.2,0.4,2.1,0.7,2.7s0.8,0.9,1.3,0.9c0.4-0.1,1-0.4,1.7-1.2c0.7-0.7,1.5-1.6,2.4-2.8
		c0.9-1.1,1.8-2.4,2.8-3.7c1-1.4,1.9-2.7,2.8-4.1c0.9-1.3,1.7-2.6,2.5-3.8c0.8-1.2,1.4-2.1,1.8-2.8c0,0,0-0.1,0,0l0,0
		c-0.1-0.2-0.2-0.4-0.2-0.6c-0.1-0.2,0-0.4,0-0.5c0.1-0.2,0.2-0.3,0.5-0.4C545.3,418.6,545.6,418.5,546.1,418.4z M572.7,416.1
		c0.1-0.2,0.2-0.3,0.5-0.4s0.5,0,0.7,0.1s0.5,0.2,0.6,0.4c0.2,0.2,0.2,0.4,0.2,0.6c-0.1,0.3-0.3,0.8-0.5,1.3
		c-0.2,0.6-0.5,1.2-0.9,1.9c-0.4,0.7-0.8,1.4-1.3,2.1s-1.1,1.4-1.7,2.1c-0.6,0.7-1.3,1.3-2.1,1.8s-1.6,0.9-2.5,1.2
		c-0.8,1.5-1.8,2.8-2.9,3.8c-1.1,1-2.4,1.6-3.7,1.8c-0.7,0.1-1.4,0-2.2-0.2s-1.4-0.5-2-1s-1.1-1.1-1.6-1.9c-0.4-0.8-0.7-1.7-0.9-2.9
		c-0.1-1-0.1-2.2,0.2-3.3c0.3-1.2,0.6-2.2,1-3.2s0.9-1.8,1.4-2.5s0.9-1,1.2-1c0.2,0,0.5,0,0.7,0c0.3,0,0.5,0,0.8,0.1
		c0.3-0.6,0.7-1.1,1.1-1.6c0.4-0.5,0.8-1,1.3-1.4s1-0.7,1.5-1s1.1-0.4,1.6-0.5c0.8-0.1,1.5-0.1,2.1,0s1,0.3,1.4,0.6
		c0.4,0.3,0.6,0.7,0.8,1.1c0.2,0.5,0.3,1,0.4,1.5c0.4,2.9,0,5.7-0.9,8.5c0.7-0.5,1.4-1.2,2-2s1.2-1.5,1.7-2.3s0.9-1.5,1.2-2.2
		S572.5,416.4,572.7,416.1z M558.9,430.3c0.8-0.1,1.5-0.4,2.1-0.9s1.2-1.1,1.7-1.9c-0.9-0.1-1.7-0.4-2.5-0.7
		c-0.8-0.4-1.5-0.8-2.1-1.3c-0.2,0.7-0.4,1.4-0.5,2.1s-0.1,1.2-0.1,1.7c0,0.4,0.2,0.7,0.4,0.8C558.2,430.3,558.5,430.3,558.9,430.3z
		 M562,423.6c0.1,0.5,0.2,0.9,0.5,1.2c0.3,0.3,0.7,0.5,1.4,0.5c0.3-0.8,0.6-1.6,0.9-2.5c0.2-0.9,0.4-1.7,0.6-2.5
		c0.1-0.8,0.2-1.6,0.3-2.3c0-0.7,0-1.4,0-1.9c-0.1-0.9-0.3-1.3-0.5-1.3s-0.5,0.3-0.9,1c-0.4,0.6-0.8,1.4-1.1,2.3
		c-0.4,0.9-0.7,1.8-0.9,2.8C561.9,421.9,561.9,422.8,562,423.6z"/>
</g>
<g id="Capa_5">
	<path id="pabajo" class="st0" d="M683.5,355.7c-20.4,69.9-96.6,122-187.2,122s-166.8-52.1-187.2-122h-61.7c3.4,17,9,33.7,17,49.7
		c13,26.2,31.6,49.7,55.1,69.7c47.5,40.4,110.3,62.6,176.8,62.6c66.6,0,129.4-22.2,176.8-62.6c23.5-20,42.1-43.5,55.1-69.7
		c8-16,13.6-32.6,17-49.7H683.5z"/>
</g>
<g id="Capa_4">
	<g id="parriba">
		<path class="st1" d="M672.7,222c-1-1.6-1.9-3.1-2.8-4.7c-9.2-13.9-21.4-25.8-35.4-36.1c-14-10.2-29.6-18.9-46.8-26.8
			c-12-5.8-25.7-10-39.7-12.6c-14.1-2.4-28.3-3.1-41.6-3.3c15.8,0.8,31.6,2.8,47.1,6.3c15.5,3.6,30.7,8.7,44.9,15.5
			c14.2,6.9,27.5,15.5,39.1,25.6s21.6,21.7,29.1,34.1c-1.5-0.5-3.1-1.1-4.6-1.8c-1.6-0.7-3.2-1.3-4.7-2.1c-3.1-1.6-6-3.8-8.9-6.3
			c-1.6-1.7-3.3-3.4-4.9-5.1c-1.7-1.6-3.5-3.2-5.2-4.8c-3.4-3.3-7.2-6.1-10.9-9c-1.8-1.5-3.8-2.8-5.7-4.1s-3.9-2.7-5.8-4
			c-2-1.2-4-2.4-6.1-3.6l-3-1.8l-1.5-0.9l-1.6-0.8c0.6-1.3,1.8-3.9,2.4-5.2c-3.2-1.2-6.4-2.4-9.5-3.7c-3.2-1.2-6.4-2.3-9.5-3.5
			c-3.1-1.3-6.3-2.2-9.5-3.3c-1.6-0.6-3.2-1.1-4.7-1.6c-1.6-0.6-3.2-0.9-4.8-1.4c-12.7-4.1-25.7-7.1-38.9-9.2
			c-3.3-0.4-6.6-1-9.9-1.3c-3.3-0.2-6.7-0.5-10-0.7c-3.4-0.3-6.7-0.2-10.1-0.3c-1.7,0-3.4,0.1-5.1,0.1c-1.7,0.1-3.4,0.1-5.1,0.3
			c-1.7,0.1-3.4,0.3-5.1,0.4c-1.7,0.2-3.4,0.4-5,0.7l-2.5,0.4l-2.5,0.5c-1.7,0.3-3.3,0.6-5,1c-6.7,1.5-13.3,3.5-19.7,6
			c2.1,0.3,1.2,1.7,1,2.7c-0.1,0-0.3,0.1-0.4,0.1c0.1,0,0.2-0.1,0.4-0.1c-0.2,0.9,0.2,1.5,3.5,0.7c-3.3,0.8-3.6,0.2-3.5-0.7
			c25.7-7.3,52.1-8.9,77.8-6l4.8,0.5c1.6,0.2,3.2,0.5,4.8,0.8c3.2,0.6,6.4,1.1,9.5,1.7c3.1,0.8,6.3,1.5,9.4,2.3l2.4,0.6l2.3,0.7
			l4.6,1.4l4.6,1.4c1.5,0.5,3,1.1,4.6,1.7c1.5,0.6,3,1.2,4.6,1.7l2.3,0.9l1.1,0.4l1.1,0.5c3,1.3,5.9,2.7,8.9,4.1
			c1.5,0.6,2.9,1.5,4.4,2.2c1.4,0.8,2.9,1.5,4.3,2.3c-2.3-1.2-4.5-2.3-6.8-3.5c-2.3-1.1-4.7-2-7-3l-3.5-1.5
			c-0.6-0.2-1.2-0.5-1.8-0.7l-1.8-0.6c-2.4-0.8-4.8-1.7-7.2-2.5c-2.4-0.9-4.8-1.6-7.3-2.3l-7.3-2.1c-2.5-0.6-5-1.1-7.4-1.6l-3.7-0.8
			l-1.9-0.4l-1.9-0.3l-7.5-1.1l-3.8-0.6l-3.8-0.3l-7.6-0.7l-1.9-0.2h-1.9l-3.8-0.1l-7.6-0.2l-7.6,0.2l-7.6,0.4
			c-2.5,0.2-5.1,0.4-7.6,0.7c-20.2,2.2-40.1,7.2-59,14.9c-9.5,3.8-18.7,8.4-27.5,13.6c-8.9,5.2-17.4,11-25.4,17.6
			c-1.4,1.1-3.4,2.8-5.4,4.5c-1,0.9-2,1.7-2.9,2.6c-0.9,0.8-1.7,1.6-2.3,2.2c-6.5,3.2-12.5,7.4-17.8,12.3
			c-5.3,4.9-9.9,10.5-13.8,16.6c-1.9-3.6-7.7-4.3-10.7-7c-1.5-1.4-2.3-3.3-1.5-6.4c0.5-1.6,1.3-3.4,2.8-5.7c0.7-1.1,1.6-2.3,2.6-3.6
			c0.5-0.6,1.1-1.3,1.7-2s1.3-1.4,2-2.1c-1.1-0.9-3.2-2.8-4.2-3.7c-6.5,5.2-12.6,9.4-17.9,12.4c-1.3,0.7-2.7,1.4-3.9,1.9
			c-1.2,0.6-2.4,1-3.6,1.4c-2.3,0.7-4.4,1-6.2,0.9c-1.8-0.2-3.3-0.8-4.4-1.9c-0.6-0.6-1.1-1.2-1.5-2s-0.6-1.8-0.8-2.9
			c-0.6-4.4,0.7-11.1,5.2-19.8c5.1-9.7,12.1-19.3,20.3-28.4c8.2-9.1,17.8-17.6,28.2-25.4c10.4-7.8,21.5-14.8,32.9-21.1
			c11.4-6.3,23.1-11.9,34.7-17.1c4.2-1.9,8.5-3.5,12.8-5.1c4.3-1.5,8.7-3.1,13.1-4.4c8.8-2.7,17.7-4.9,26.7-6.5s18.1-2.7,27.2-3.1
			s18.2-0.3,27.3,0.8c24.8,2.7,50.5,7.2,75.2,15.4c24.6,8.4,48.2,20.6,67.6,36.7c0.9,0.7,1.9,1.4,2.8,2.2c1,0.8,2,1.5,3.1,2.3
			c2.1,1.5,4.4,3.1,6.8,4.7c2.3,1.7,4.6,3.4,7,5.2c1.2,0.9,2.3,1.7,3.5,2.6c1.2,0.9,2.3,1.7,3.4,2.7c2.2,1.9,4.3,3.7,6.3,5.5
			s3.8,3.5,5.4,5.2c3.1,3.5,5.3,6.6,6.2,9c0.8,1.5,1.2,2.9,1.4,4s0.1,2.1-0.2,2.9c-0.5,1.6-1.8,2.5-3.3,3.3
			c-2.3-2.9-4.8-5.5-7.3-8.1s-4.9-5.4-7.6-7.8c-2.7-2.5-5.3-4.9-8-7.4c-2.8-2.3-5.6-4.6-8.3-6.9c-2.7-2.4-5.7-4.4-8.6-6.5
			c-2.9-2.1-5.7-4.3-8.8-6.2c-3-1.9-6-3.9-9-5.8c-3-1.8-6.1-3.5-9.2-5.3c-15-8.8-30.8-16.1-47.1-22.1l-12.4-4.1
			c-4.2-1.3-8.4-2.4-12.5-3.5l-3.1-0.9c-1-0.3-2.1-0.5-3.2-0.7l-6.4-1.4l-6.4-1.4c-2.1-0.4-4.3-0.7-6.4-1.1c2.1,0.4,4.2,0.9,6.3,1.3
			c2.1,0.5,4.2,1.1,6.3,1.6s4.2,1,6.3,1.5c1,0.3,2.1,0.5,3.1,0.8l3.1,0.9c4.1,1.2,8.3,2.4,12.4,3.6c4.1,1.4,8.2,2.8,12.3,4.1
			c16.3,5.9,32.3,12.9,47.8,21.5c24.3,14.3,46.4,32.8,64.2,55.1c-2.8,1.2-5.5,2.6-6.4,5.8c0,0,1.4,1.6,3.1,3.6
			c0.9,1,1.8,2.1,2.7,3.2c0.4,0.5,0.9,1,1.3,1.5c0.4,0.5,0.7,1,1.1,1.4c2.4,9.1,0.8,14-2.5,16.6c-3.4,2.6-8.5,2.8-13.4,2.1
			c-1.1-0.3-2.3-0.6-3.5-1C675.3,222.7,674.1,222.3,672.7,222z"/>
	</g>
</g>
<g id="Capa_3_1_">
	<path id="texto" class="st2" d="M338,198.3c-0.9,0.8-1.7,1.4-2.5,1.9c-0.8,0.4-1.6,0.6-2.4,0.6c-0.7,0-1.5-0.2-2.2-0.5
		s-1.4-0.8-2.1-1.4c-0.2-0.2-0.4-0.4-0.7-0.7c-0.5-0.5-0.9-1-1.4-1.6l-5.8-7.6c-0.9-1.2-1.6-2.2-2-3.3c-0.5-1-0.7-2.1-0.8-3.1
		c-0.1-1.1,0.2-2.1,0.7-3.1s1.3-2.1,2.4-3.1c0.8-0.8,1.6-1.4,2.4-1.8s1.5-0.6,2.2-0.7c0.7,0,1.4,0.1,2,0.3c0.7,0.2,1.3,0.6,1.9,1.2
		c0.2,0.2,0.5,0.5,0.7,0.7c0.3,0.4,0.7,0.7,1,1.2l1.4,1.9l-4.1,3.9l-1.6-2.1c-0.2-0.2-0.3-0.3-0.3-0.4c-0.1-0.1-0.2-0.2-0.3-0.4
		c-0.2-0.2-0.3-0.3-0.3-0.4c-0.1-0.1-0.2-0.2-0.4-0.3c-0.2-0.1-0.3-0.2-0.4-0.2s-0.2-0.1-0.4-0.1c-0.2,0-0.3,0-0.4,0
		s-0.3,0.1-0.4,0.2c-0.2,0.1-0.3,0.2-0.5,0.4c-0.3,0.3-0.5,0.5-0.6,0.8s-0.2,0.6-0.1,0.8c0,0.3,0.1,0.5,0.3,0.9
		c0.2,0.3,0.3,0.6,0.5,0.8s0.4,0.5,0.6,0.9l7.6,9.8c0.2,0.3,0.5,0.6,0.7,0.8c0.4,0.4,0.8,0.7,1.2,0.9c0.6,0.3,1.1,0.1,1.7-0.4
		c0.3-0.3,0.4-0.5,0.5-0.8s0.1-0.6,0.1-0.8s-0.1-0.5-0.3-0.9c-0.2-0.3-0.3-0.6-0.5-0.8c-0.1-0.2-0.3-0.5-0.6-0.8l-1.7-2.2l4.1-3.9
		l1.4,1.8c0.7,1,1.3,1.9,1.7,2.8c0.4,0.9,0.6,1.8,0.6,2.8s-0.2,2-0.7,3C339.9,196.3,339.1,197.3,338,198.3z M354,184.5
		c-1.2,0.9-2.3,1.5-3.3,1.8s-2,0.3-2.9,0s-1.7-0.8-2.5-1.5c-0.4-0.4-0.8-0.8-1.2-1.3c-0.4-0.5-0.7-1-1.1-1.6l-5.3-8.4
		c-1.5-2.5-2.2-4.7-2-6.7s1.4-3.9,3.7-5.7c2.3-1.8,4.3-2.4,6.1-1.9c1.4,0.4,2.7,1.4,3.9,3c0.4,0.4,0.7,0.9,1,1.5l5.3,8.4
		c1.5,2.5,2.2,4.7,2,6.8C357.5,180.8,356.3,182.7,354,184.5z M351.8,181c0.4-0.3,0.6-0.6,0.7-0.9c0.1-0.3,0.2-0.7,0.1-1.1
		c-0.1-0.4-0.2-0.7-0.3-1c-0.1-0.3-0.3-0.7-0.6-1.1L345,166c-0.3-0.4-0.5-0.7-0.7-1c-0.1-0.1-0.1-0.1-0.2-0.2
		c-0.3-0.4-0.7-0.6-1.1-0.7c-0.4-0.1-0.9,0.1-1.4,0.4c-0.4,0.3-0.6,0.6-0.7,0.9c-0.1,0.3-0.2,0.7-0.1,1c0.1,0.4,0.2,0.7,0.3,1
		c0.1,0.3,0.3,0.7,0.6,1.1l6.8,10.8c0.3,0.4,0.6,0.8,0.8,1.2l0.1,0.1c0.3,0.4,0.7,0.6,1.1,0.7C350.9,181.5,351.4,181.3,351.8,181z
		 M365.3,175.5l-12-24.1l3.4-2.2l10.6,8.8l-5.9-11.8l4.1-2.6l12,24.1l-3.3,2.1l-11-9.6l6.3,12.6L365.3,175.5z M392.8,159.4
		l-8.7-25.4l10.8-5l1.3,3.8l-5.6,2.6l2.2,6.4l4.2-2l1.3,3.8l-4.3,2l2.6,7.7l5.6-2.6l1.3,3.7L392.8,159.4z M408.8,152.2l-6.8-26
		l5.4-2l5.8,22.2l5.7-2.2l1,3.8L408.8,152.2z M442.1,142.1c-2.5,0.6-4.4,0.4-5.8-0.7c-1.2-0.9-2-2.4-2.5-4.6
		c-0.1-0.4-0.2-0.8-0.3-1.3l4.8-1.9c0.1,0.5,0.2,1,0.3,1.5c0.2,0.9,0.5,1.6,0.8,2c0.5,0.7,1.1,0.9,1.9,0.8c1-0.2,1.4-1,1.3-2.4
		c0-0.2-0.1-0.4-0.1-0.6c-0.2-0.7-0.5-1.3-0.9-1.8c-0.5-0.6-1.4-1.2-2.5-1.9l-2.7-1.6c-0.6-0.4-1.1-0.7-1.6-1
		c-0.4-0.3-0.8-0.7-1.2-1.2c-0.4-0.5-0.7-1-1-1.7c-0.1-0.3-0.3-0.7-0.3-1.1c-0.1-0.3-0.1-0.7-0.2-1.1c-0.3-2.2,0.1-4.1,1.2-5.6
		s2.8-2.5,5.1-3.1c0.8-0.2,1.5-0.3,2.1-0.3s1.2,0.1,1.7,0.3c0.5,0.2,0.9,0.4,1.3,0.7c0.4,0.3,0.7,0.7,1,1.1s0.5,0.8,0.7,1.3
		c0.2,0.4,0.3,0.8,0.4,1.2c0,0.1,0,0.1,0,0.2c0.1,0.5,0.2,1,0.3,1.4l-4.8,1.8c-0.1-0.7-0.2-1.4-0.4-1.9v-0.1c-0.1-0.6-0.4-1-0.7-1.3
		c-0.3-0.3-0.7-0.3-1.1-0.2h-0.1c-0.5,0.1-0.9,0.5-1.1,1s-0.3,1-0.2,1.6c0,0.2,0,0.3,0.1,0.5s0.1,0.4,0.2,0.6
		c0.1,0.3,0.3,0.6,0.5,0.8c0.2,0.2,0.4,0.5,0.7,0.7c0.3,0.2,0.5,0.4,0.7,0.5s0.5,0.3,0.8,0.5l2.6,1.5c0.7,0.4,1.3,0.8,1.8,1.2
		s1,0.9,1.5,1.4c0.5,0.6,0.9,1.2,1.2,1.9c0.2,0.4,0.3,0.9,0.4,1.3c0.1,0.3,0.1,0.7,0.2,1.1c0.3,1.9-0.2,3.7-1.2,5.2
		C445.7,140.5,444.1,141.6,442.1,142.1z M453.1,139.1l3.8-27.6l6.4-1l6.2,26.1l-5.3,0.8l-1.2-5.6l-3.9,0.6l-0.6,5.9L453.1,139.1z
		 M459.5,128.9l2.9-0.4l-1.9-10.2L459.5,128.9z M474.1,136.2l0.1-3.5l7.2-19.8l-6.3,0.4l0.1-4l12-0.8l-0.1,3.2l-7.4,20.2l6.8-0.5
		l-0.1,4L474.1,136.2z M499.6,135.5c-1.5,0-2.7-0.2-3.7-0.6s-1.8-1-2.3-1.8s-0.9-1.7-1-2.8c-0.1-0.5-0.1-1.1-0.1-1.8
		c0-0.6,0.1-1.2,0.1-1.9l1.2-9.9c0.3-2.9,1.2-5.1,2.6-6.5c1.4-1.5,3.6-2.2,6.4-2.1c2.9,0,4.9,0.8,5.9,2.3c0.8,1.2,1.2,2.7,1.2,4.8
		c0,0.6,0,1.2-0.1,1.8l-1.2,9.9c-0.3,2.9-1.2,5.1-2.7,6.5C504.7,134.8,502.5,135.6,499.6,135.5z M500.1,131.4c0.5,0,0.8-0.1,1.2-0.2
		c0.3-0.2,0.6-0.4,0.7-0.8c0.2-0.3,0.3-0.7,0.4-1s0.2-0.7,0.2-1.2l1.5-12.7c0-0.5,0.1-0.9,0.1-1.3c0-0.1,0-0.2,0-0.3
		c0-0.5-0.2-0.9-0.4-1.2c-0.3-0.3-0.7-0.5-1.3-0.5c-0.5,0-0.8,0.1-1.1,0.2c-0.3,0.2-0.6,0.4-0.7,0.8c-0.2,0.3-0.3,0.7-0.4,1
		s-0.2,0.7-0.2,1.2l-1.5,12.7c-0.1,0.5-0.1,1-0.1,1.4c0,0,0,0.1,0,0.2c0,0.5,0.1,0.9,0.4,1.2S499.5,131.4,500.1,131.4z M501.6,106.1
		l2.8-6.6l5.4,0.1l-5,6.6L501.6,106.1z M514.1,135.5l5.5-26.3l4.1,0.4l2.9,13.4l2.7-12.9l4.8,0.5l-5.5,26.3l-3.9-0.4l-2.7-14.4
		l-3,13.9L514.1,135.5z M545.7,139.7l9-25.3l6.5,1.6c1.7,0.4,3,0.9,4.1,1.5c1,0.6,1.7,1.3,2.2,2.1c0.4,0.8,0.6,1.7,0.5,2.8
		c0,0.5-0.1,1.1-0.3,1.8c-0.1,0.6-0.3,1.3-0.6,2l-3.2,9.1c-0.5,1.5-1.1,2.7-1.7,3.6c-0.6,0.9-1.4,1.7-2.3,2.2
		c-0.9,0.5-2,0.8-3.2,0.9c-1.2,0-2.6-0.1-4.3-0.5L545.7,139.7z M552.7,137.3l0.9,0.2c0.5,0.1,1,0.2,1.4,0.2s0.7-0.1,1-0.2
		c0.3-0.1,0.5-0.3,0.7-0.6s0.4-0.6,0.5-0.9c0.1-0.3,0.3-0.8,0.5-1.3l3.8-10.7c0.2-0.5,0.3-0.9,0.4-1.2c0.1-0.3,0.1-0.5,0.1-0.7
		c0.1-0.5-0.1-0.9-0.4-1.3c-0.3-0.3-0.9-0.6-1.8-0.8l-0.9-0.2L552.7,137.3z M566.9,145.2l11.1-24.5l11.3,3.7l-1.6,3.6l-5.8-1.9
		l-2.8,6.1l4.4,1.5l-1.7,3.7l-4.5-1.5l-3.3,7.4l5.9,1.9l-1.6,3.6L566.9,145.2z M593.4,154.9l14.2-22.8l6,2.9
		c1.6,0.8,2.8,1.5,3.6,2.3s1.4,1.6,1.7,2.5s0.2,1.8-0.1,2.8c-0.2,0.5-0.4,1.1-0.7,1.7c-0.3,0.6-0.6,1.2-1,1.8l-5.1,8.2
		c-0.8,1.3-1.6,2.4-2.5,3.2s-1.7,1.3-2.7,1.6s-2.1,0.4-3.3,0.2s-2.6-0.7-4.1-1.4L593.4,154.9z M600.8,154l0.9,0.4
		c0.5,0.2,0.9,0.4,1.3,0.5c0.4,0.1,0.7,0.1,1,0s0.6-0.2,0.8-0.5c0.3-0.3,0.5-0.5,0.7-0.8s0.5-0.7,0.8-1.2l6-9.7
		c0.3-0.4,0.5-0.8,0.6-1.1c0.1-0.2,0.2-0.5,0.3-0.7c0.2-0.5,0.1-0.9-0.1-1.3c-0.3-0.4-0.8-0.8-1.6-1.2l-0.8-0.4L600.8,154z
		 M619.2,168.9c-1.3-0.8-2.2-1.6-2.9-2.4c-0.7-0.9-1-1.8-1.1-2.7c0-0.9,0.1-1.9,0.5-2.9c0.2-0.5,0.5-1,0.8-1.6
		c0.3-0.5,0.7-1,1.1-1.6l6-7.9c1.8-2.3,3.6-3.7,5.6-4.3c1.9-0.5,4.2-0.1,6.6,1.4c2.5,1.5,3.8,3.2,3.9,5c0.1,1.4-0.3,3-1.4,4.7
		c-0.3,0.5-0.6,1-1,1.5l-6,7.9c-1.8,2.3-3.6,3.7-5.6,4.3C623.9,170.9,621.7,170.4,619.2,168.9z M621.8,165.6
		c0.4,0.2,0.8,0.4,1.1,0.4c0.4,0,0.7-0.1,1-0.3s0.6-0.4,0.8-0.7c0.2-0.2,0.5-0.6,0.8-0.9l7.8-10.2c0.3-0.4,0.5-0.7,0.7-1
		c0-0.1,0.1-0.2,0.2-0.2c0.2-0.4,0.3-0.8,0.2-1.3s-0.4-0.8-0.9-1.1c-0.4-0.2-0.8-0.4-1.1-0.4s-0.7,0.1-1,0.3s-0.6,0.4-0.8,0.7
		c-0.2,0.2-0.5,0.5-0.8,0.9L622,162c-0.3,0.4-0.6,0.8-0.8,1.2l-0.1,0.1c-0.3,0.4-0.3,0.8-0.3,1.3C621,164.9,621.2,165.3,621.8,165.6
		z M631.6,176.3l18.3-19.7l3.3,2.4l-4.5,13l8.9-9.6l3.9,2.9L643.2,185l-3.1-2.3l5.1-13.7l-9.6,10.3L631.6,176.3z M659.6,161
		l-0.1-0.1c-0.4-0.2-0.7-0.6-1-1.1c-0.3-0.6-0.6-1.1-0.9-1.7s-0.5-0.9-0.8-1.1c-0.5-0.4-1-0.2-1.6,0.5l-2-1.5c0.5-0.5,0.9-1,1.3-1.3
		c0.4-0.3,0.8-0.6,1.3-0.8c0.4-0.2,0.9-0.3,1.4-0.2s0.9,0.2,1.4,0.5c0.1,0,0.2,0.1,0.2,0.2c0.4,0.3,0.7,0.7,1,1.1
		c0.3,0.5,0.6,1,0.8,1.5s0.4,0.8,0.5,0.9c0.2,0.2,0.5,0.3,0.8,0.2s0.5-0.3,0.8-0.6l1.9,1.4c-0.4,0.5-0.8,0.8-1.2,1.2
		s-0.8,0.6-1.2,0.9s-0.9,0.4-1.3,0.4S660,161.3,659.6,161z M647.4,188.3l23.8-14.4l4.8,4.4l-16.3,21.3l-4-3.6l3.6-4.5l-2.9-2.7
		l-5,3.2L647.4,188.3z M659.4,186.8l2.2,2l6.7-7.9L659.4,186.8z M304.2,439.7l20.8-17l4,3.9l-10.3,12.3l14.3-8.3l3.9,3.8L316.8,452
		l-2.7-2.6l13.4-11.8l-15.7,9.5l-2.3-2.3L321,431l-14,11.4L304.2,439.7z M325.1,459.1l18.7-19.3l8.4,6.7l-2.8,2.9L345,446l-4.7,4.8
		l3.3,2.6l-2.8,2.9l-3.3-2.6l-5.6,5.8l4.4,3.5l-2.8,2.8L325.1,459.1z M340,470.8l13-8.6l4.1-12.1l4.1,2.8l-2.4,7.2l6.5-4.5l3.7,2.5
		l-12.3,8.4l-4.3,12.7l-4.1-2.7l2.6-7.9l-7.3,4.8L340,470.8z M360.3,483.7l15.3-22l4.6,2.6l-15.3,22L360.3,483.7z M380.3,494.6
		c-1-0.5-1.8-1-2.4-1.6s-1-1.2-1.3-1.9s-0.3-1.4-0.3-2.2c0-0.8,0.2-1.6,0.6-2.5c0.1-0.3,0.2-0.6,0.4-0.9c0.3-0.6,0.6-1.2,1-1.8
		l4.8-8.2c0.7-1.3,1.5-2.3,2.2-3.1c0.8-0.8,1.6-1.5,2.5-1.9c0.9-0.5,1.9-0.7,2.9-0.6c1.1,0.1,2.2,0.4,3.4,0.9
		c0.9,0.4,1.7,0.9,2.3,1.5c0.6,0.5,1,1.1,1.3,1.7c0.2,0.6,0.4,1.3,0.3,2s-0.2,1.4-0.5,2.1c-0.1,0.3-0.3,0.6-0.4,0.9
		c-0.2,0.4-0.4,0.9-0.7,1.4l-1.2,2l-4.6-2.2l1.3-2.3c0.1-0.2,0.2-0.4,0.3-0.5c0.1-0.1,0.1-0.2,0.3-0.5c0.1-0.2,0.2-0.4,0.2-0.5
		s0.1-0.2,0.1-0.4c0.1-0.2,0.1-0.3,0.1-0.4s0-0.2,0-0.4c0-0.2-0.1-0.3-0.1-0.4c-0.1-0.1-0.2-0.2-0.3-0.3s-0.3-0.2-0.4-0.3
		c-0.3-0.1-0.6-0.2-0.9-0.2s-0.5,0.1-0.8,0.2c-0.2,0.1-0.4,0.3-0.7,0.6c-0.2,0.3-0.4,0.5-0.6,0.7s-0.3,0.5-0.6,0.9l-6.3,10.7
		c-0.2,0.3-0.4,0.7-0.5,1c-0.3,0.5-0.4,1-0.4,1.4c-0.1,0.6,0.3,1.1,0.9,1.4c0.3,0.1,0.6,0.2,0.9,0.2s0.5-0.1,0.7-0.2
		s0.4-0.3,0.7-0.6c0.2-0.3,0.4-0.5,0.6-0.7c0.1-0.2,0.3-0.5,0.5-0.9l1.4-2.4l4.6,2.2l-1.2,2c-0.6,1.1-1.3,1.9-1.9,2.6
		c-0.7,0.7-1.4,1.3-2.3,1.7s-1.8,0.6-2.8,0.6S381.5,495.2,380.3,494.6z M395.2,500.8l15.8-22.7l5.5,2l-7.1,25.8l-4.6-1.6l1.7-5.5
		l-3.4-1.2l-3.2,4.9L395.2,500.8z M405,494.5l2.5,0.9l3.2-9.9L405,494.5z M418.6,508.8l9.3-25.2l3.6,0.9l0.4,13.6l4.5-12.3l4.2,1.1
		l-9.3,25.2l-3.4-0.9v-14.5L423,510L418.6,508.8z M455.3,516.8l5.9-26.2l10.3,1.3l-0.9,3.9l-5.1-0.7l-1.5,6.7l4.4,0.6l-0.9,4
		l-4.4-0.6l-2.6,11.7L455.3,516.8z M482,519.8c-1.3-0.1-2.4-0.3-3.3-0.7s-1.6-1.1-2-1.9s-0.7-1.7-0.8-2.8c-0.1-0.6-0.1-1.1,0-1.8
		c0-0.6,0.1-1.2,0.2-1.9l1.4-9.8c0.4-2.9,1.3-5,2.6-6.4c1.3-1.4,3.3-2.1,5.9-1.9c2.6,0.1,4.4,0.9,5.3,2.5c0.7,1.2,1,2.8,0.9,4.8
		c0,0.6-0.1,1.2-0.2,1.8l-1.4,9.8c-0.4,2.9-1.3,5-2.6,6.5C486.6,519.2,484.6,519.9,482,519.8z M482.6,515.7c0.4,0,0.8-0.1,1.1-0.2
		c0.3-0.2,0.5-0.4,0.7-0.7s0.3-0.7,0.4-1s0.2-0.7,0.2-1.2l1.8-12.7c0.1-0.4,0.1-0.9,0.1-1.3c0-0.1,0-0.2,0-0.3
		c0-0.5-0.1-0.9-0.4-1.2c-0.3-0.3-0.7-0.5-1.2-0.5c-0.4,0-0.8,0.1-1,0.2c-0.3,0.2-0.5,0.4-0.7,0.7s-0.3,0.7-0.4,1s-0.2,0.7-0.2,1.2
		l-1.8,12.7c-0.1,0.5-0.1,1-0.1,1.4c0,0,0,0.1,0,0.2c0,0.5,0.1,0.9,0.3,1.2C481.7,515.5,482.1,515.7,482.6,515.7z M506.8,519.9
		c-1.3,0.1-2.5-0.1-3.4-0.5s-1.6-0.9-2.2-1.7c-0.5-0.8-0.9-1.7-1-2.7c-0.1-0.5-0.2-1.1-0.2-1.8c0-0.6,0-1.2,0-1.9l0.5-9.9
		c0.2-2.9,0.8-5.1,2-6.6s3.1-2.3,5.7-2.4s4.4,0.5,5.5,2c0.8,1.1,1.3,2.7,1.3,4.7c0,0.6,0,1.2,0,1.8l-0.5,9.9c-0.2,2.9-0.8,5.1-2,6.7
		C511.3,519,509.4,519.8,506.8,519.9z M507,515.8c0.4,0,0.8-0.1,1-0.3s0.5-0.5,0.6-0.8s0.2-0.7,0.3-1c0.1-0.3,0.1-0.7,0.1-1.2
		l0.7-12.8c0-0.5,0-0.9,0-1.3c0-0.1,0-0.2,0-0.3c0-0.5-0.2-0.9-0.5-1.2c-0.3-0.3-0.7-0.5-1.2-0.4c-0.4,0-0.7,0.1-1,0.3
		c-0.3,0.2-0.5,0.4-0.6,0.8c-0.1,0.3-0.2,0.7-0.3,1c-0.1,0.3-0.1,0.7-0.1,1.2l-0.7,12.8c0,0.5,0,1,0,1.4c0,0,0,0.1,0,0.2
		c0,0.5,0.2,0.9,0.4,1.2C506.1,515.7,506.5,515.8,507,515.8z M524.6,518.4l-0.9-26.8l6-0.8c1.6-0.2,2.9-0.2,3.9,0s1.9,0.6,2.5,1.2
		s1.1,1.4,1.4,2.4c0.1,0.5,0.3,1.1,0.3,1.8c0.1,0.6,0.1,1.3,0.2,2.1l0.3,9.7c0.1,1.6,0,2.9-0.2,4c-0.2,1.1-0.6,2-1.2,2.8
		c-0.6,0.8-1.4,1.4-2.4,1.9s-2.3,0.8-3.8,1L524.6,518.4z M529.6,513.7l0.9-0.1c0.5-0.1,0.9-0.2,1.2-0.3s0.6-0.3,0.7-0.5
		c0.2-0.2,0.3-0.5,0.4-0.8c0.1-0.4,0.1-0.7,0.1-1.1c0-0.3,0-0.8,0-1.4l-0.4-11.4c0-0.5,0-0.9-0.1-1.3c0-0.3-0.1-0.5-0.1-0.7
		c-0.1-0.5-0.4-0.8-0.8-1c-0.4-0.2-1-0.2-1.8-0.1l-0.7,0L529.6,513.7z M561.2,512.2l-0.1-27.7l5.7-1.6l9,25.2l-4.7,1.3l-1.8-5.4
		l-3.5,0.9l0.2,5.9L561.2,512.2z M565.6,501.5l2.6-0.7l-3.1-10L565.6,501.5z M585,505.3l-6.9-25.9l3.5-1.3l8.1,10.9l-3.4-12.7
		l4.1-1.5l6.9,25.9L594,502l-8.4-11.9l3.6,13.6L585,505.3z M607.4,496.6l-9.3-25.2l5.4-2.6c1.4-0.7,2.7-1.1,3.7-1.3
		c1-0.2,2,0,2.8,0.4s1.5,1,2.1,1.9c0.3,0.4,0.6,1,0.9,1.6c0.3,0.6,0.5,1.2,0.8,1.9l3.3,9.1c0.5,1.5,0.9,2.8,1,3.8s0,2.1-0.3,3.1
		s-0.9,1.8-1.7,2.6s-1.9,1.5-3.3,2.1L607.4,496.6z M610.7,490.5l0.8-0.4c0.4-0.2,0.8-0.4,1.1-0.7c0.3-0.2,0.4-0.5,0.5-0.7
		s0.1-0.6,0.1-0.9c0-0.4-0.1-0.7-0.2-1.1s-0.3-0.8-0.5-1.3l-3.9-10.7c-0.2-0.5-0.3-0.9-0.5-1.2c-0.1-0.2-0.2-0.5-0.3-0.6
		c-0.3-0.4-0.6-0.7-1.1-0.7c-0.4,0-1,0.1-1.7,0.4l-0.7,0.4L610.7,490.5z M641.3,478.4l-12.8-23.6l4.6-3.2l10.1,12.4l-5.4-15.7
		l4.5-3.1l13.4,23.2l-3.1,2.1l-9-15.4l6.3,17.3l-2.7,1.9l-11.3-14l8.5,15.9L641.3,478.4z M669.9,457.5c-1,0.9-2,1.5-2.9,1.8
		s-1.9,0.3-2.7,0s-1.7-0.8-2.5-1.5c-0.4-0.4-0.8-0.8-1.3-1.3c-0.4-0.5-0.8-1-1.2-1.5l-5.7-8.1c-1.7-2.4-2.5-4.5-2.6-6.5
		c0-1.9,1-3.8,2.9-5.5c2-1.7,3.8-2.3,5.5-1.9c1.3,0.4,2.7,1.3,4,2.8c0.4,0.4,0.7,0.9,1.1,1.4l5.7,8.1c1.7,2.4,2.5,4.5,2.5,6.5
		C672.9,453.9,671.9,455.8,669.9,457.5z M667.5,454.1c0.3-0.3,0.5-0.6,0.6-0.9s0.1-0.7,0-1s-0.2-0.7-0.4-1s-0.4-0.6-0.7-1l-7.4-10.4
		c-0.3-0.4-0.5-0.7-0.8-1c-0.1-0.1-0.1-0.1-0.2-0.2c-0.3-0.4-0.7-0.6-1.1-0.6c-0.4-0.1-0.8,0.1-1.2,0.4c-0.3,0.3-0.5,0.6-0.6,0.9
		s-0.1,0.6,0,1s0.2,0.7,0.4,1s0.4,0.6,0.7,1l7.4,10.4c0.3,0.4,0.6,0.8,0.9,1.1l0.1,0.1c0.3,0.4,0.7,0.6,1.1,0.7
		C666.7,454.6,667.1,454.4,667.5,454.1z M683,445l-17.7-20.2l4.4-4.7c0.7-0.7,1.4-1.4,2-1.8s1.3-0.8,2-1.1c0.7-0.3,1.4-0.3,2-0.3
		c0.7,0.1,1.4,0.3,2.1,0.8c0.4,0.3,0.9,0.6,1.3,1c0.3,0.3,0.5,0.5,0.8,0.9c1.1,1.3,1.9,2.5,2.3,3.7c0.4,1.2,0.4,2.4,0,3.7l11.1,7.1
		l-3.6,3.8l-10-6.9l-1.1,1.1l7.9,9L683,445z M676.5,429.6l0.9-1c0.8-0.8,1.1-1.6,1-2.4s-0.6-1.7-1.4-2.6c-0.2-0.2-0.4-0.5-0.7-0.7
		c-0.6-0.5-1.1-0.9-1.6-1c-0.7-0.2-1.4,0.1-2.1,0.9l-1.1,1.2L676.5,429.6z M699.7,426.5l-19.6-18.3l6.6-8.5l2.9,2.7l-3.4,4.4
		l4.9,4.6l2.6-3.3l3,2.8l-2.6,3.4l5.9,5.5l3.4-4.4l2.9,2.7L699.7,426.5z"/>
</g>
<g>
	<linearGradient id="listonr_1_" gradientUnits="userSpaceOnUse" x1="158.9218" y1="306.4112" x2="898.8066" y2="306.4112">
		<stop  offset="0" style="stop-color:#AE0F0A"/>
		<stop  offset="0.1319" style="stop-color:#E30613"/>
		<stop  offset="0.7946" style="stop-color:#E30B17"/>
		<stop  offset="1" style="stop-color:#8A1002"/>
	</linearGradient>
	<path id="listonr" class="st3" d="M786.4,412.7c-26.6-2.6-15.7-16.6-8.6-23.3c-0.1-0.1-0.1-0.2-0.1-0.2s-69.2-40.9-267.4-5.2
		s-343.1,38.8-349.8-56.6s10.1-141.6,10.1-141.6s-0.8,125.8,320.5,64S821.7,232.9,806,321c-1.1,6.1-2.1,11.6-3.2,16.7
		c0.9,0.1,47.9,6.6,73.6-11.1c25.9-17.8-23.6,45-23.6,45s-6.7,19.6,36.3,33C932.1,417.9,820.3,416.1,786.4,412.7z M553.3,230.9
		c-280.8,39.3-355.9-7.9-375.7-32.2C245.8,299.7,553.3,230.9,553.3,230.9z M769.5,415.2c21.9,23.2,86.4,5.1,86.4,5.1
		C804.9,428.9,769.5,415.2,769.5,415.2z M408.1,406.9c203.4-33.5,352.7-18.8,352.7-18.8C664,356.1,408.1,406.9,408.1,406.9z"/>
</g>
<g>
	<g id="Lichis">
		<linearGradient id="SVGID_1_" gradientUnits="userSpaceOnUse" x1="486.4282" y1="471.6586" x2="486.4282" y2="189.6924">
			<stop  offset="0.1657" style="stop-color:#FBBA00"/>
			<stop  offset="0.4018" style="stop-color:#FFED00"/>
			<stop  offset="0.6901" style="stop-color:#FFED00"/>
			<stop  offset="1" style="stop-color:#FEC800"/>
		</linearGradient>
		<path class="st4" d="M791.3,233.7c-50.7-24.8-145.7-59.8-235.7,83c0,0,55-27.5,55.9-1.9c0,0,1.4,5.6-10.7,21s-13,22.4-13,22.4
			s4.7,7.5,41.5-17.7l25.6-38.2c0,0,18.2-0.8,19.3,8.1c0,0,0.7,5.2-11.7,20.3c-12.3,15.1-15.4,24.7-15.4,24.7s9.3,4.7,32.9-11.2
			c0,0-9.6-20,25.6-21.2c0,0,5.1,2.8-3,4.4c-26.7,5.4-17.2,16.5-17.2,16.5s6.5,9.6,24,11.2s28.9-4,29.1-9.8
			c0.2-5.8-7.5-12.6-15.1-18.2c-7.7-5.6-12.6-10.8-11.9-16.8c0.7-6,13.7-14.1,38-12.8c24.3,1.2,28.1,8.7,28.5,11.9
			c0.3,3.1-4.2,8.4-13.8,9.1s-17.1-2.3-17.7-5.4c-0.5-3.1,9.3-8.4,19.2-7c0,0-2.4-7.2-16.1-7s-19.6,4.2-19.4,7
			c0.2,2.8,0.7,6.8,14.5,16.1c13.8,9.3,17.8,15.6,17.3,19.7c-0.5,4.2-4.4,16.6-42.8,16.4c0,0-22.7,1.4-37.2-11.9
			c0,0-24.8,17.3-45.6,15s-10.5-15.6-10.5-15.6s-29.5,22.5-50.7,17.8c-21.1-4.7-1.9-27.6,1.7-32.7c3.7-5.1,27.6-31.5-1.7-19.9
			c-29.4,11.5-52.3,54.3-52.3,54.3s-26.6,1.9-18.2-13.5c0,0-23.9,16.3-50.7,17.7c-26.7,1.4-46.1-3.3-51.9-15.2
			c0,0-28.3,21.1-48.6,18.9c-20.3-2.3-11.4-17.7-11.4-17.7l27.4-41.6c0,0,17.7-0.7,19.6,7s-26.4,43.5-26.4,43.5s-5.4,10,20.3-1.7
			c0,0,15-7.5,18.2-11.7c0,0-4.9-26,46.1-39.3c0,0,47.7-10.8,53.8,7.9c0,0,2.1,8.7-15.9,10.3c-18,1.6-17.5-7-17.5-7s3-7.2,19.4-5.2
			c0,0,5.2-6.8-9.9-6.8s-30.5,9.3-36.8,17s-21.3,21.3-11.9,32.3s55,7.2,82-17.5c0,0,96.6-188.4,269.6-118.2
			C782.9,225.6,799.6,237.8,791.3,233.7z M285.3,260.9l4.3,1.2l1.7-8.3l-3.5-1C287.9,257,285.3,260.9,285.3,260.9z M599.4,409.8
			c5.6,34.6-20.3,69.2-79,60.5s-93-19-240.1-89c0,0-22,31.7-58.4,34.1c-36.3,2.4-60.5-25.2-25.9-54.2c0,0,25.2-22,81.1,1.7
			c0,0,6-9,16.6-35.4c-10.4,3.5-21.5,5.6-33.3,5.7c-71.7,0.3-77.2-52.4-73.7-75.5s31.1-64,74.4-55.6c0,0,31.1,6.7,31.1,34.6h-3.5
			c0,0,0-27.5-30.4-29.4c-30.5-1.9-54.2,35.2-55.9,59.7s7.6,60.2,58.4,61.9c12,0.4,23.8-2.1,35-6.4c4.8-12.3,10.4-27.8,16.8-47.4
			c22-67.8,39.8-89.1,67.1-84.9s8,51.1,8,51.1l-9.7,0.2c0,0,17.5-45.1,1-48.9c-16.4-3.8-30.4,29.4-47.2,84.9
			c-3.6,11.9-7.1,22.2-10.5,31.2c22-15.1,39.5-35.8,48.5-51.6l9.5-0.2c0,0-22.9,36.7-60.9,59.1c-11.2,27.9-20.8,41.5-27.5,51.6
			c0,0,58.7,25.2,115.3,54.2s122.5,53.5,160.9,39.5c38.3-14,31.7-80.4-21.4-78.6C545.6,382.9,593.8,375.2,599.4,409.8z M268.4,377.7
			c0,0-56.3-27.7-71.7-12.9c-15.4,14.8-10.1,49.1,26.2,46.5C252,409.1,268.4,377.7,268.4,377.7z M377.1,296.3c0,4,6.9,7.2,15.5,7.2
			s15.5-3.2,15.5-7.2s-6.9-7.2-15.5-7.2S377.1,292.3,377.1,296.3z M661.4,284.3c0,4,6.9,7.2,15.5,7.2s15.5-3.2,15.5-7.2
			s-6.9-7.2-15.5-7.2S661.4,280.3,661.4,284.3z"/>
	</g>
</g>
<g id="Capa_0">
	<path class="st5" d="M202.3,267.2c0.6-8,3.5-17.3,8.2-26.1c21.4,12.7,54.3,23.1,104.9,25.3c-1,2.9-2,5.8-2.9,8.9
		c-6.4,19.6-12,35.1-16.8,47.4c-11.2,4.4-22.9,6.8-35,6.4C210,327.3,200.6,291.7,202.3,267.2z M666.6,220.2c-0.5-0.8-1-1.6-1.5-2.4
		c-0.8,0.3-1.6,0.6-2.5,0.8C664,219.2,665.3,219.7,666.6,220.2z M366,204.1c2-1.8,4-3.4,5.4-4.5c2.8-2.3,5.6-4.4,8.5-6.5
		c-0.3-0.1-0.7-0.2-1-0.3c-7.9-1.8-15.2,4.9-22.6,18.5c1.5-0.9,3-1.7,4.5-2.4c0.6-0.6,1.4-1.4,2.3-2.2C364,205.9,365,205,366,204.1z
		 M364.1,266.1c-10.2,0.5-19.9,0.7-29.1,0.7c-1.1,3.5-2.2,7.1-3.3,10.9c-3.6,11.9-7.1,22.2-10.5,31.2
		C339.3,296.5,354.3,280.3,364.1,266.1z M570.6,388.3c-3.2-1.8-6.9-3.2-10.9-4.1c-81,8.7-151.6,22.7-151.6,22.7
		C467.7,397.1,522.7,391.4,570.6,388.3z M183.2,375.9c2.7-4.8,6.9-9.7,12.9-14.7c0,0,25.2-22,81.1,1.7c0,0,6-9,16.6-35.4
		c-10.4,3.5-21.5,5.6-33.3,5.7c-71.7,0.3-77.2-52.4-73.7-75.5c1.1-7.5,4.8-16.9,10.8-25.8c-27-22-26.8-46.2-26.8-46.2
		s-16.8,46.1-10.1,141.6C161.9,347.9,169.8,363.8,183.2,375.9z M196.8,364.7c-4.3,4.2-7,9.9-7.8,15.8c14.4,10.6,33.8,17.7,57.6,21.8
		c14.2-10,21.9-24.7,21.9-24.7S212.1,349.9,196.8,364.7z M553.3,230.9c-280.8,39.3-355.9-7.9-375.7-32.2
		C245.8,299.7,553.3,230.9,553.3,230.9z M769.5,415.2c21.9,23.2,86.4,5.1,86.4,5.1C804.9,428.9,769.5,415.2,769.5,415.2z
		 M502.5,403.2c-2.1,0.5-4.2,1.2-6.3,1.9c-2.1,0.7-4.1,1.5-6.2,2.3c-2,0.8-4,1.7-5.8,2.6c-1.9,0.9-3.6,1.7-5.2,2.5s-3.1,1.6-4.5,2.3
		c-1.6,0.8-2.9,1.4-3.9,1.9s-1.7,0.8-2,0.8c-0.8,0.1-1.4,0.3-1.7,0.7c-0.3,0.4-0.4,0.8-0.4,1.2c0,0.3,0.2,0.7,0.5,1.1s0.7,0.7,1.1,1
		s0.9,0.5,1.5,0.7c0.5,0.2,1.1,0.2,1.6,0.2c0.8-0.1,1.6-0.1,2.5-0.1s1.8,0.1,2.7,0.2c0.9,0.1,1.8,0.3,2.7,0.5
		c0.9,0.2,1.6,0.5,2.3,0.8c0.7,0.3,1.2,0.7,1.7,1.2c0.4,0.4,0.7,0.9,0.8,1.5c0,0.1,0,0.3,0,0.4c0,0.2,0,0.3-0.1,0.5
		c-0.5,1.4-1.1,2.8-1.6,4.2c-0.5,1.4-0.9,2.7-1.3,4s-0.7,2.4-0.9,3.4c-0.2,1-0.3,1.8-0.2,2.4c0.1,1,0.4,1.9,0.8,2.7
		c0.4,0.8,0.9,1.4,1.4,1.9s1.1,0.9,1.7,1.1s1.1,0.3,1.5,0.3s0.7-0.1,0.9-0.2c0.2-0.1,0.3-0.2,0.3-0.4c0-0.2,0-0.4-0.1-0.7
		c-0.1-0.3-0.2-0.6-0.3-1l0,0c-0.1-0.4-0.3-0.9-0.5-1.5s-0.3-1.3-0.4-2.1c-0.1-0.5,0-1.1,0.2-1.9s0.5-1.7,0.8-2.8s0.8-2.2,1.2-3.4
		c0.5-1.2,0.9-2.4,1.4-3.7c0.5-1.2,0.9-2.4,1.4-3.6s0.9-2.3,1.2-3.4c0.3-1,0.6-2,0.8-2.8c0.2-0.8,0.2-1.5,0.2-2
		c-0.1-0.4-0.3-0.9-0.8-1.3s-1-0.8-1.6-1.1c-0.6-0.3-1.1-0.4-1.5-0.4s-0.6,0.2-0.6,0.6c0,0.2,0,0.5-0.2,0.9c-0.1,0.4-0.3,1-0.5,1.7
		s-0.5,1.4-0.8,2.3s-0.7,1.8-1,2.7c-0.8-1-2-1.7-3.5-2.3c-1.5-0.6-3.2-0.9-5-1c0.3-0.2,0.5-0.3,0.6-0.4s0.3-0.1,0.4-0.2
		s0.3-0.2,0.4-0.3c0.2-0.1,0.4-0.3,0.8-0.5c1.8-1.1,4-2.3,6.5-3.7c2.5-1.3,5.2-2.6,8.2-3.9s6.3-2.4,9.9-3.5c3.6-1,7.4-1.8,11.5-2.3
		c1-0.1,1.9-0.1,2.7,0s1.5,0.3,2.1,0.6c0.6,0.3,1,0.6,1.3,0.9c0.3,0.4,0.5,0.7,0.5,1c0,0.1,0,0.2,0,0.4c0,0.2-0.1,0.5-0.1,0.7
		s0,0.5,0.1,0.7s0.2,0.3,0.4,0.4s0.5,0.1,1,0.1c0.6-0.1,1.1-0.4,1.4-0.8c0.3-0.5,0.4-1,0.4-1.6c-0.1-0.6-0.4-1.3-1-2.1
		c-0.6-0.8-1.5-1.5-2.8-2.1s-2.9-1.1-5-1.4s-4.5-0.3-7.5,0.1C506.7,402.2,504.6,402.6,502.5,403.2z M512.4,425
		c-0.3,0.7-0.7,1.4-1.2,2.2c-0.5,0.8-1,1.5-1.7,2.3c-0.6,0.8-1.3,1.4-2,2c1-2.8,1.3-5.6,0.9-8.5c-0.1-0.5-0.2-1-0.4-1.5
		c-0.2-0.5-0.4-0.8-0.8-1.1s-0.8-0.5-1.4-0.6s-1.3-0.1-2.1,0c-0.6,0.1-1.1,0.2-1.6,0.5s-1,0.6-1.5,1s-0.9,0.9-1.3,1.4
		s-0.8,1.1-1.1,1.6c-0.2,0-0.5-0.1-0.8-0.1s-0.5,0-0.7,0c-0.3,0-0.7,0.4-1.2,1c-0.5,0.7-0.9,1.5-1.4,2.5c-0.4,1-0.8,2.1-1,3.2
		c-0.3,1.2-0.3,2.3-0.2,3.3c0.1,1.1,0.4,2.1,0.9,2.9c0.4,0.8,1,1.4,1.6,1.9s1.3,0.8,2,1s1.4,0.3,2.2,0.2c1.3-0.2,2.6-0.8,3.7-1.8
		s2.1-2.3,2.9-3.8c0.9-0.2,1.7-0.6,2.5-1.2c0.8-0.5,1.4-1.1,2.1-1.8c0.6-0.7,1.2-1.4,1.7-2.1s0.9-1.5,1.3-2.1
		c0.4-0.7,0.7-1.3,0.9-1.9s0.4-1,0.5-1.3c0.1-0.2,0-0.4-0.2-0.6s-0.4-0.3-0.6-0.4s-0.5-0.1-0.7-0.1c-0.3,0-0.4,0.2-0.5,0.4
		C512.9,423.8,512.7,424.3,512.4,425z M498.3,437.5c-0.2-0.2-0.3-0.5-0.4-0.8c-0.1-0.5,0-1,0.1-1.7s0.3-1.3,0.5-2.1
		c0.6,0.5,1.3,1,2.1,1.3c0.8,0.4,1.6,0.6,2.5,0.7c-0.5,0.8-1.1,1.4-1.7,1.9s-1.3,0.8-2.1,0.9C498.9,437.7,498.5,437.7,498.3,437.5z
		 M502.5,428.3c0.2-1,0.5-1.9,0.9-2.8s0.7-1.6,1.1-2.3c0.4-0.6,0.7-0.9,0.9-1s0.4,0.4,0.5,1.3c0.1,0.5,0.1,1.2,0,1.9
		c0,0.7-0.1,1.5-0.3,2.3c-0.1,0.8-0.3,1.6-0.6,2.5c-0.2,0.9-0.5,1.7-0.9,2.5c-0.6,0-1.1-0.2-1.4-0.5s-0.5-0.7-0.5-1.2
		C502.2,430.2,502.3,429.3,502.5,428.3z M545,418.7c-0.2,0.1-0.4,0.2-0.5,0.4c-0.1,0.2-0.1,0.3,0,0.5s0.1,0.4,0.2,0.6c0,0,0,0.1,0,0
		l0,0c-0.5,0.7-1.1,1.7-1.8,2.8c-0.8,1.2-1.6,2.4-2.5,3.8c-0.9,1.3-1.9,2.7-2.8,4.1c-1,1.4-1.9,2.6-2.8,3.7c-0.9,1.1-1.7,2-2.4,2.8
		c-0.7,0.7-1.3,1.1-1.7,1.2c-0.5,0.1-1-0.2-1.3-0.9c-0.3-0.6-0.6-1.5-0.7-2.7c-0.2-1.5-0.2-3.2,0-5.2s0.5-4.1,1-6.2
		c0.5-2.2,1.2-4.3,2.1-6.5c0.9-2.2,1.9-4.1,3.1-5.9c1.2-1.8,2.6-3.2,4.2-4.4c1.6-1.2,3.3-1.9,5.2-2.1c0.4,0,0.7,0,1,0.2
		s0.5,0.4,0.7,0.7c0.2,0.3,0.4,0.6,0.5,1s0.2,0.7,0.2,1c0.1,0.6,0.1,1.2,0.1,1.9c0,0.6-0.1,1.2-0.2,1.7c-0.1,0.5-0.2,1-0.3,1.3
		s-0.3,0.5-0.4,0.5c-0.1,0-0.1,0.1-0.1,0.3c0,0.2,0,0.5,0,0.7c0,0.3,0.1,0.5,0.2,0.7c0.1,0.2,0.2,0.3,0.4,0.3s0.6-0.3,1-0.9
		s0.9-1.3,1.3-2.2c0.4-0.9,0.7-1.9,1-3.1s0.3-2.3,0.1-3.6c-0.2-1.8-1-3.1-2.2-3.9c-1.3-0.8-2.9-1.1-5-0.8c-2.1,0.3-4,0.9-5.9,1.9
		s-3.6,2.3-5.1,3.9s-2.9,3.3-4.1,5.3c-1.2,2-2.2,4-3,6.2s-1.3,4.4-1.6,6.6s-0.3,4.4-0.1,6.4c0.5,3.9,1.4,6.6,2.9,8.3
		c1.4,1.7,3.2,2.4,5.2,2.1c0.6-0.1,1.3-0.4,2.1-0.9s1.5-1.2,2.3-2s1.6-1.8,2.5-2.8s1.7-2.1,2.5-3.3c0.8-1.1,1.6-2.2,2.3-3.4
		s1.4-2.1,2-3.1c-0.2,1.4-0.6,2.9-1,4.6s-0.9,3.3-1.5,5s-1.2,3.4-1.9,5s-1.5,3-2.4,4.3s-1.8,2.3-2.8,3.2c-1,0.8-2.1,1.3-3.3,1.5
		c-1.3,0.2-2-0.1-2.1-0.7c0-0.1,0-0.3,0-0.4s0-0.3,0.1-0.5c0.2-0.5,0.1-0.9-0.2-1.2c-0.3-0.3-0.7-0.5-1.2-0.4
		c-0.3,0-0.6,0.2-0.9,0.5c-0.3,0.3-0.5,0.7-0.7,1.4c0,0.2-0.1,0.4-0.1,0.6s0,0.4,0,0.6c0.1,0.5,0.2,0.9,0.4,1.3s0.6,0.8,1,1.1
		c0.4,0.3,1,0.5,1.7,0.7c0.7,0.1,1.5,0.1,2.5,0c1.3-0.2,2.6-0.6,3.9-1.3c1.2-0.7,2.4-1.6,3.6-2.8c1.1-1.1,2.2-2.4,3.2-3.9
		c1-1.4,1.9-3,2.7-4.6s1.5-3.3,2.2-5c0.6-1.7,1.1-3.3,1.5-5c0.4-1.6,0.7-3.1,0.8-4.6s0.2-2.7,0-3.9c-0.1-0.5-0.2-0.9-0.4-1.3
		s-0.5-0.8-0.9-1.1c-0.3-0.3-0.7-0.5-1.2-0.7c-0.5-0.1-0.9-0.2-1.4-0.1C545.6,418.5,545.3,418.6,545,418.7z M572,417.6
		c-0.3,0.7-0.7,1.4-1.2,2.2c-0.5,0.8-1,1.5-1.7,2.3c-0.6,0.8-1.3,1.4-2,2c1-2.8,1.3-5.6,0.9-8.5c-0.1-0.5-0.2-1-0.4-1.5
		s-0.4-0.8-0.8-1.1c-0.4-0.3-0.8-0.5-1.4-0.6c-0.6-0.1-1.3-0.1-2.1,0c-0.6,0.1-1.1,0.2-1.6,0.5s-1,0.6-1.5,1s-0.9,0.9-1.3,1.4
		c-0.4,0.5-0.8,1.1-1.1,1.6c-0.2,0-0.5-0.1-0.8-0.1s-0.5,0-0.7,0c-0.3,0-0.7,0.4-1.2,1c-0.5,0.7-0.9,1.5-1.4,2.5
		c-0.4,1-0.8,2.1-1,3.2c-0.3,1.2-0.3,2.3-0.2,3.3c0.1,1.1,0.4,2.1,0.9,2.9c0.4,0.8,1,1.4,1.6,1.9s1.3,0.8,2,1s1.4,0.3,2.2,0.2
		c1.3-0.2,2.6-0.8,3.7-1.8c1.1-1,2.1-2.3,2.9-3.8c0.9-0.2,1.7-0.6,2.5-1.2c0.8-0.5,1.4-1.1,2.1-1.8c0.6-0.7,1.2-1.4,1.7-2.1
		s0.9-1.5,1.3-2.1c0.4-0.7,0.7-1.3,0.9-1.9s0.4-1,0.5-1.3c0.1-0.2,0-0.4-0.2-0.6s-0.4-0.3-0.6-0.4c-0.2-0.1-0.5-0.1-0.7-0.1
		s-0.4,0.2-0.5,0.4C572.5,416.4,572.3,417,572,417.6z M558,430.1c-0.2-0.2-0.3-0.5-0.4-0.8c-0.1-0.5,0-1.1,0.1-1.7
		c0.1-0.7,0.3-1.3,0.5-2.1c0.6,0.5,1.3,1,2.1,1.3c0.8,0.4,1.6,0.6,2.5,0.7c-0.5,0.8-1.1,1.4-1.7,1.9c-0.6,0.5-1.3,0.8-2.1,0.9
		C558.5,430.3,558.2,430.3,558,430.1z M562.2,421c0.2-1,0.5-1.9,0.9-2.8s0.7-1.6,1.1-2.3c0.4-0.6,0.7-0.9,0.9-1
		c0.2,0,0.4,0.4,0.5,1.3c0.1,0.5,0.1,1.2,0,1.9c0,0.7-0.1,1.5-0.3,2.3c-0.1,0.8-0.3,1.6-0.6,2.5c-0.2,0.9-0.5,1.7-0.9,2.5
		c-0.6,0-1.1-0.2-1.4-0.5c-0.3-0.3-0.5-0.7-0.5-1.2C561.9,422.8,561.9,421.9,562.2,421z M602.9,154.8c0.4,0.1,0.7,0.1,1,0
		s0.6-0.2,0.8-0.5c0.3-0.3,0.5-0.5,0.7-0.8s0.5-0.7,0.8-1.2l6-9.7c0.3-0.4,0.5-0.8,0.6-1.1c0.1-0.2,0.2-0.5,0.3-0.7
		c0.2-0.5,0.1-0.9-0.1-1.3c-0.3-0.4-0.8-0.8-1.6-1.2l-0.8-0.4l-9.9,15.9l0.9,0.4C602.1,154.6,602.5,154.8,602.9,154.8z M555,137.7
		c0.4,0,0.7-0.1,1-0.2c0.3-0.1,0.5-0.3,0.7-0.6s0.4-0.6,0.5-0.9c0.1-0.3,0.3-0.8,0.5-1.3l3.8-10.7c0.2-0.5,0.3-0.9,0.4-1.2
		c0.1-0.3,0.1-0.5,0.1-0.7c0.1-0.5-0.1-0.9-0.4-1.3c-0.3-0.3-0.9-0.6-1.8-0.8l-0.9-0.2l-6.2,17.7l0.9,0.2
		C554.1,137.6,554.6,137.7,555,137.7z M621.8,165.6c0.4,0.2,0.8,0.4,1.1,0.4c0.4,0,0.7-0.1,1-0.3s0.6-0.4,0.8-0.7
		c0.2-0.2,0.5-0.6,0.8-0.9l7.8-10.2c0.3-0.4,0.5-0.7,0.7-1c0-0.1,0.1-0.2,0.2-0.2c0.2-0.4,0.3-0.8,0.2-1.3s-0.4-0.8-0.9-1.1
		c-0.4-0.2-0.8-0.4-1.1-0.4s-0.7,0.1-1,0.3s-0.6,0.4-0.8,0.7c-0.2,0.2-0.5,0.5-0.8,0.9L622,162c-0.3,0.4-0.6,0.8-0.8,1.2l-0.1,0.1
		c-0.3,0.4-0.3,0.8-0.3,1.3C621,164.9,621.2,165.3,621.8,165.6z M660.6,156.9c0.2,0.5,0.4,0.8,0.5,0.9c0.2,0.2,0.5,0.3,0.8,0.2
		s0.5-0.3,0.8-0.6c-1.1-0.9-2.2-1.8-3.3-2.7c0.1,0.2,0.3,0.3,0.4,0.5C660.1,155.9,660.4,156.5,660.6,156.9z M668.3,180.8l-8.9,6
		l2.2,2L668.3,180.8z M352.3,177.9c-0.1-0.3-0.3-0.7-0.6-1.1L345,166c-0.3-0.4-0.5-0.7-0.7-1c-0.1-0.1-0.1-0.1-0.2-0.2
		c-0.3-0.4-0.7-0.6-1.1-0.7c-0.4-0.1-0.9,0.1-1.4,0.4c-0.4,0.3-0.6,0.6-0.7,0.9c-0.1,0.3-0.2,0.7-0.1,1c0.1,0.4,0.2,0.7,0.3,1
		c0.1,0.3,0.3,0.7,0.6,1.1l6.8,10.8c0.3,0.4,0.6,0.8,0.8,1.2l0.1,0.1c0.3,0.4,0.7,0.6,1.1,0.7c0.4,0.1,0.9-0.1,1.3-0.4
		c0.4-0.3,0.6-0.6,0.7-0.9c0.1-0.3,0.2-0.7,0.1-1.1C352.6,178.6,352.5,178.3,352.3,177.9z M459.5,128.9l2.9-0.4l-1.9-10.2
		L459.5,128.9z M502.4,112.2c-0.5,0-0.8,0.1-1.1,0.2c-0.3,0.2-0.6,0.4-0.7,0.8c-0.2,0.3-0.3,0.7-0.4,1s-0.2,0.7-0.2,1.2l-1.5,12.7
		c-0.1,0.5-0.1,1-0.1,1.4c0,0,0,0.1,0,0.2c0,0.5,0.1,0.9,0.4,1.2s0.7,0.5,1.3,0.5c0.5,0,0.8-0.1,1.2-0.2c0.3-0.2,0.6-0.4,0.7-0.8
		c0.2-0.3,0.3-0.7,0.4-1s0.2-0.7,0.2-1.2l1.5-12.7c0-0.5,0.1-0.9,0.1-1.3c0-0.1,0-0.2,0-0.3c0-0.5-0.2-0.9-0.4-1.2
		C503.5,112.4,503,112.2,502.4,112.2z M638.2,200.1c-3.4-3.3-7.2-6.1-10.9-9c-1.8-1.5-3.8-2.8-5.7-4.1s-3.9-2.7-5.8-4
		c-2-1.2-4-2.4-6.1-3.6l-3-1.8l-1.5-0.9l-1.6-0.8c0.6-1.3,1.8-3.9,2.4-5.2c-3.2-1.2-6.4-2.4-9.5-3.7c-3.2-1.2-6.4-2.3-9.5-3.5
		c-3.1-1.3-6.3-2.2-9.5-3.3c-1.6-0.5-3.2-1.1-4.7-1.6c-1.6-0.6-3.2-0.9-4.8-1.4c-12.7-4.1-25.7-7.1-38.9-9.2c-3.3-0.4-6.6-1-9.9-1.3
		c-3.3-0.2-6.7-0.5-10-0.7c-3.4-0.3-6.7-0.2-10.1-0.3c-1.7,0-3.4,0.1-5.1,0.1c-1.7,0.1-3.4,0.1-5.1,0.3c-1.7,0.1-3.4,0.3-5.1,0.4
		c-1.7,0.2-3.4,0.4-5,0.7l-2.5,0.4l-2.5,0.5c-1.7,0.3-3.3,0.6-5,1c-6.7,1.5-13.3,3.5-19.7,6c2.1,0.3,1.2,1.7,1,2.7
		c25.7-7.3,52.1-8.9,77.8-6l4.8,0.5c1.6,0.2,3.2,0.5,4.8,0.8c3.2,0.6,6.4,1.1,9.5,1.7c3.1,0.8,6.3,1.5,9.4,2.3l2.4,0.6l2.3,0.7
		l4.6,1.4l4.6,1.4c1.5,0.5,3,1.1,4.6,1.7c1.5,0.6,3,1.2,4.6,1.7l2.3,0.9l1.1,0.4l1.1,0.5c3,1.3,5.9,2.7,8.9,4.1
		c1.5,0.6,2.9,1.5,4.4,2.2c1.4,0.8,2.9,1.5,4.3,2.3c-2.3-1.2-4.5-2.3-6.8-3.5c-2.3-1.1-4.7-2-7-3l-3.5-1.5c-0.6-0.2-1.2-0.5-1.8-0.7
		l-1.8-0.6c-2.4-0.8-4.8-1.7-7.2-2.5c-2.4-0.9-4.8-1.6-7.3-2.3l-7.3-2.1c-2.5-0.6-5-1.1-7.4-1.6l-3.7-0.8l-1.9-0.4l-1.9-0.3
		l-7.5-1.1l-3.8-0.6l-3.8-0.3l-7.6-0.7l-1.9-0.2h-1.9l-3.8-0.1l-7.6-0.2l-7.6,0.2l-7.6,0.4c-2.5,0.2-5.1,0.4-7.6,0.7
		c-20.2,2.2-40.1,7.2-59,14.9c-9.5,3.8-18.7,8.4-27.5,13.6c-4.8,2.8-9.5,5.8-14.1,9.1c-1-0.3-2-0.6-3.2-0.7
		c-21-3.2-36.4,8.7-52.4,45.2c-2.6-1.8-6.4-2.7-8.7-4.8c-1.5-1.4-2.3-3.3-1.5-6.4c0.5-1.6,1.3-3.4,2.8-5.7c0.7-1.1,1.6-2.3,2.6-3.6
		c0.5-0.6,1.1-1.3,1.7-2s1.3-1.4,2-2.1c-1.1-0.9-3.2-2.8-4.2-3.7c-6.5,5.2-12.6,9.4-17.9,12.4c-1.3,0.7-2.7,1.4-3.9,1.9
		c-1.2,0.6-2.4,1-3.6,1.4c-2.3,0.7-4.4,1-6.2,0.9c-0.2,0-0.4-0.1-0.6-0.1c-1.6-3.6-3.7-6.6-6.1-9.1c0.1-4.3,1.6-10.1,5.3-17.4
		c5.1-9.7,12.1-19.3,20.3-28.4c8.2-9.1,17.8-17.6,28.2-25.4c10.4-7.8,21.5-14.8,32.9-21.1c11.4-6.3,23.1-11.9,34.7-17.1
		c4.2-1.9,8.5-3.5,12.8-5.1c4.3-1.5,8.7-3.1,13.1-4.4c8.8-2.7,17.7-4.9,26.7-6.5s18.1-2.7,27.2-3.1s18.2-0.3,27.3,0.8
		c24.8,2.7,50.5,7.2,75.2,15.4c24.6,8.4,48.2,20.6,67.6,36.7c0.9,0.7,1.9,1.4,2.8,2.2c1,0.8,2,1.5,3.1,2.3c2.1,1.5,4.4,3.1,6.8,4.7
		c2.3,1.7,4.6,3.4,7,5.2c1.2,0.9,2.3,1.7,3.5,2.6c1.2,0.9,2.3,1.7,3.4,2.7c2.2,1.9,4.3,3.7,6.3,5.5s3.8,3.5,5.4,5.2
		c3.1,3.5,5.3,6.6,6.2,9c0.8,1.5,1.2,2.9,1.4,4s0.1,2.1-0.2,2.9c-0.5,1.6-1.8,2.5-3.3,3.3c-2.3-2.9-4.8-5.5-7.3-8.1
		s-4.9-5.4-7.6-7.8c-2.7-2.5-5.3-4.9-8-7.4c-2.8-2.3-5.6-4.6-8.3-6.9c-2.7-2.4-5.7-4.4-8.6-6.5c-2.9-2.1-5.7-4.3-8.8-6.2
		c-3-1.9-6-3.9-9-5.8c-3-1.8-6.1-3.5-9.2-5.3c-15-8.8-30.8-16.1-47.1-22.1l-12.4-4.1c-4.2-1.3-8.4-2.4-12.5-3.5l-3.1-0.9
		c-1-0.3-2.1-0.5-3.2-0.7l-6.4-1.4l-6.4-1.4c-2.1-0.4-4.3-0.7-6.4-1.1c2.1,0.4,4.2,0.9,6.3,1.3c2.1,0.5,4.2,1.1,6.3,1.6
		s4.2,1,6.3,1.5c1,0.3,2.1,0.5,3.1,0.8l3.1,0.9c4.1,1.2,8.3,2.4,12.4,3.6c4.1,1.4,8.2,2.8,12.3,4.1c16.3,5.9,32.3,12.9,47.8,21.5
		c9.8,5.8,19.2,12.2,28.2,19.3c-0.4-0.2-0.8-0.4-1.1-0.4c-0.5-0.1-0.9,0-1.4,0.2c-0.4,0.2-0.9,0.5-1.3,0.8c-0.4,0.3-0.9,0.8-1.3,1.3
		l2,1.5c0.6-0.7,1.2-0.8,1.6-0.5c0.2,0.2,0.5,0.5,0.8,1.1s0.6,1.1,0.9,1.7c0.3,0.5,0.6,0.9,1,1.1l0.1,0.1c0.4,0.3,0.8,0.4,1.2,0.4
		s0.9-0.1,1.3-0.4s0.8-0.5,1.2-0.9c0.3-0.3,0.7-0.6,1.1-1c10.9,9.3,20.9,19.5,29.9,30.7c-2.8,1.2-5.5,2.6-6.4,5.8
		c0,0,1.4,1.6,3.1,3.6c0.9,1,1.8,2.1,2.7,3.2c0.4,0.5,0.9,1,1.3,1.5c0.4,0.5,0.7,1,1.1,1.4c0.4,1.3,0.6,2.6,0.8,3.7
		c-10.4,0.5-20.4,1.8-30,4c-8.8-12.1-19.9-22.6-32.4-31.8c-14-10.2-29.6-18.9-46.8-26.8c-12-5.8-25.7-10-39.7-12.6
		c-14.1-2.4-28.3-3.1-41.6-3.3c15.8,0.8,31.6,2.8,47.1,6.3c15.5,3.6,30.7,8.7,44.9,15.5c14.2,6.9,27.5,15.5,39.1,25.6
		c9.7,8.4,18.2,17.9,25.1,28c-2.1,0.5-4.2,1.1-6.3,1.7c-2.8-1.6-5.3-3.5-8-5.8c-1.6-1.7-3.3-3.4-4.9-5.1
		C641.7,203.2,640,201.7,638.2,200.1z M647.4,188.3l4,3.7l5-3.2l2.9,2.7l-3.6,4.5l4,3.6l16.3-21.3l-4.8-4.4L647.4,188.3z
		 M649.9,156.6l-18.3,19.7l4,3l9.6-10.3l-5.1,13.7l3.1,2.3l18.3-19.7l-3.9-2.9l-8.9,9.6l4.5-13L649.9,156.6z M623.8,149.8l-6,7.9
		c-0.4,0.5-0.8,1.1-1.1,1.6c-0.3,0.6-0.6,1.1-0.8,1.6c-0.4,1-0.6,1.9-0.5,2.9c0,0.9,0.4,1.8,1.1,2.7c0.7,0.9,1.6,1.7,2.9,2.4
		c2.5,1.5,4.7,2,6.6,1.4c2-0.5,3.8-2,5.6-4.3l6-7.9c0.4-0.5,0.7-1,1-1.5c1.1-1.7,1.5-3.3,1.4-4.7c-0.2-1.8-1.5-3.5-3.9-5
		c-2.5-1.5-4.7-2-6.6-1.4C627.4,146,625.6,147.5,623.8,149.8z M593.4,154.9l6.1,3c1.5,0.7,2.9,1.2,4.1,1.4c1.2,0.2,2.3,0.2,3.3-0.2
		c1-0.3,1.9-0.9,2.7-1.6s1.6-1.8,2.5-3.2l5.1-8.2c0.4-0.6,0.7-1.2,1-1.8s0.5-1.2,0.7-1.7c0.3-1,0.3-1.9,0.1-2.8
		c-0.2-0.9-0.8-1.7-1.7-2.5s-2.1-1.5-3.6-2.3l-6-2.9L593.4,154.9z M566.9,145.2l11.4,3.8l1.6-3.6l-5.9-1.9l3.3-7.4l4.5,1.5l1.7-3.7
		l-4.4-1.5l2.8-6.1l5.8,1.9l1.6-3.6l-11.3-3.7L566.9,145.2z M545.7,139.7l6.6,1.6c1.7,0.4,3.1,0.6,4.3,0.5c1.2,0,2.3-0.3,3.2-0.9
		c0.9-0.5,1.7-1.3,2.3-2.2s1.2-2.1,1.7-3.6l3.2-9.1c0.2-0.7,0.4-1.4,0.6-2c0.2-0.7,0.3-1.3,0.3-1.8c0.1-1-0.1-2-0.5-2.8
		s-1.1-1.5-2.2-2.1c-1-0.6-2.4-1-4.1-1.5l-6.5-1.6L545.7,139.7z M514.1,135.5l4.9,0.5l2.9-13.8l2.7,14.4l3.9,0.4l5.5-26.3l-4.8-0.5
		l-2.7,12.9l-2.9-13.4l-4.1-0.4L514.1,135.5z M341,192.3c0-1-0.3-1.9-0.6-2.8c-0.4-0.9-1-1.8-1.7-2.8l-1.4-1.8l-4.1,3.9l1.7,2.2
		c0.3,0.4,0.5,0.6,0.6,0.8s0.3,0.5,0.5,0.8s0.3,0.6,0.3,0.9c0,0.2,0,0.5-0.1,0.8s-0.3,0.6-0.5,0.8c-0.6,0.6-1.2,0.7-1.7,0.4
		c-0.4-0.2-0.8-0.5-1.2-0.9c-0.2-0.2-0.5-0.5-0.7-0.8l-7.6-9.8c-0.3-0.3-0.5-0.6-0.6-0.9c-0.2-0.2-0.3-0.5-0.5-0.8s-0.2-0.6-0.3-0.9
		c0-0.3,0-0.5,0.1-0.8s0.3-0.6,0.6-0.8c0.2-0.1,0.3-0.3,0.5-0.4c0.2-0.1,0.3-0.2,0.4-0.2s0.3,0,0.4,0c0.2,0,0.3,0.1,0.4,0.1
		s0.2,0.1,0.4,0.2c0.2,0.1,0.3,0.2,0.4,0.3s0.2,0.2,0.3,0.4c0.2,0.2,0.3,0.3,0.3,0.4c0.1,0.1,0.2,0.2,0.3,0.4l1.6,2.1l4.1-3.9
		l-1.4-1.9c-0.3-0.4-0.7-0.8-1-1.2c-0.2-0.2-0.5-0.5-0.7-0.7c-0.6-0.5-1.2-0.9-1.9-1.2c-0.7-0.2-1.3-0.4-2-0.3
		c-0.7,0-1.4,0.3-2.2,0.7s-1.6,1-2.4,1.8c-1.1,1-1.9,2.1-2.4,3.1s-0.7,2.1-0.7,3.1c0.1,1.1,0.3,2.1,0.8,3.1s1.1,2.1,2,3.3l5.8,7.6
		c0.5,0.6,0.9,1.1,1.4,1.6c0.2,0.2,0.4,0.5,0.7,0.7c0.7,0.6,1.4,1.1,2.1,1.4c0.7,0.3,1.5,0.5,2.2,0.5s1.5-0.2,2.4-0.6
		c0.8-0.4,1.7-1,2.5-1.9c1.1-1,1.8-2,2.3-3C340.8,194.3,341.1,193.3,341,192.3z M355.7,172l-5.3-8.4c-0.3-0.5-0.7-1-1-1.5
		c-1.2-1.6-2.5-2.6-3.9-3c-1.8-0.5-3.8,0.1-6.1,1.9c-2.3,1.8-3.5,3.7-3.7,5.7s0.5,4.3,2,6.7l5.3,8.4c0.4,0.6,0.7,1.1,1.1,1.6
		s0.8,1,1.2,1.3c0.8,0.7,1.6,1.2,2.5,1.5s1.9,0.3,2.9,0s2.1-0.9,3.3-1.8c2.3-1.8,3.5-3.7,3.7-5.7C357.9,176.7,357.2,174.5,355.7,172
		z M377.5,167.8l-12-24.1l-4.1,2.6l5.9,11.8l-10.6-8.8l-3.4,2.2l12,24.1l4.2-2.7l-6.3-12.6l11,9.6L377.5,167.8z M403.7,154.4
		l-1.3-3.7l-5.6,2.6l-2.6-7.7l4.3-2l-1.3-3.8l-4.2,2l-2.2-6.4l5.6-2.6l-1.3-3.8l-10.8,5l8.7,25.4L403.7,154.4z M420,148.1l-1-3.8
		l-5.7,2.2l-5.8-22.2l-5.4,2l6.8,26L420,148.1z M448,133.8c0-0.4-0.1-0.8-0.2-1.1c-0.1-0.5-0.3-0.9-0.4-1.3
		c-0.3-0.7-0.7-1.4-1.2-1.9c-0.5-0.6-1-1-1.5-1.4c-0.5-0.4-1.1-0.8-1.8-1.2l-2.6-1.5c-0.4-0.2-0.7-0.4-0.8-0.5
		c-0.2-0.1-0.4-0.3-0.7-0.5c-0.3-0.2-0.5-0.5-0.7-0.7s-0.3-0.5-0.5-0.8c-0.1-0.2-0.2-0.4-0.2-0.6s-0.1-0.3-0.1-0.5
		c-0.1-0.5,0-1.1,0.2-1.6s0.6-0.8,1.1-1h0.1c0.4-0.1,0.8,0,1.1,0.2c0.3,0.3,0.5,0.7,0.7,1.3v0.1c0.1,0.6,0.3,1.2,0.4,1.9l4.8-1.8
		c-0.1-0.5-0.2-0.9-0.3-1.4c0-0.1,0-0.1,0-0.2c-0.1-0.4-0.2-0.8-0.4-1.2c-0.2-0.5-0.4-0.9-0.7-1.3s-0.6-0.8-1-1.1
		c-0.4-0.3-0.8-0.6-1.3-0.7c-0.5-0.2-1-0.3-1.7-0.3s-1.3,0.1-2.1,0.3c-2.2,0.5-3.9,1.6-5.1,3.1s-1.5,3.4-1.2,5.6
		c0,0.4,0.1,0.8,0.2,1.1c0.1,0.4,0.2,0.8,0.3,1.1c0.3,0.6,0.6,1.2,1,1.7s0.8,0.9,1.2,1.2c0.4,0.3,0.9,0.7,1.6,1l2.7,1.6
		c1.1,0.6,1.9,1.3,2.5,1.9c0.4,0.5,0.7,1.1,0.9,1.8c0.1,0.2,0.1,0.4,0.1,0.6c0.2,1.3-0.3,2.1-1.3,2.4c-0.8,0.2-1.4-0.1-1.9-0.8
		c-0.3-0.5-0.6-1.1-0.8-2c-0.1-0.4-0.2-0.9-0.3-1.5l-4.8,1.9c0.1,0.5,0.2,0.9,0.3,1.3c0.5,2.2,1.4,3.7,2.5,4.6
		c1.4,1.1,3.3,1.3,5.8,0.7c2-0.5,3.6-1.5,4.7-3.1C447.9,137.4,448.3,135.7,448,133.8z M469.6,136.7l-6.2-26.1l-6.4,1l-3.8,27.6
		l5.4-0.8l0.6-5.9l3.9-0.6l1.2,5.6L469.6,136.7z M487.3,108.5l-12,0.8l-0.1,4l6.3-0.4l-7.2,19.8l-0.1,3.5l12.3-0.9l0.1-4l-6.8,0.5
		l7.4-20.2L487.3,108.5z M501.6,106.1h3.3l5-6.6l-5.4-0.1L501.6,106.1z M506.1,133.4c1.4-1.5,2.3-3.6,2.7-6.5l1.2-9.9
		c0.1-0.6,0.1-1.2,0.1-1.8c0-2-0.4-3.6-1.2-4.8c-1.1-1.5-3-2.3-5.9-2.3s-5,0.7-6.4,2.1c-1.4,1.5-2.3,3.6-2.6,6.5l-1.2,9.9
		c-0.1,0.7-0.1,1.3-0.1,1.9c0,0.6,0,1.2,0.1,1.8c0.1,1.1,0.5,2,1,2.8s1.3,1.4,2.3,1.8s2.2,0.6,3.7,0.6
		C502.5,135.6,504.7,134.8,506.1,133.4z M509.7,498.1c0-0.5-0.2-0.9-0.5-1.2c-0.3-0.3-0.7-0.5-1.2-0.4c-0.4,0-0.7,0.1-1,0.3
		c-0.3,0.2-0.5,0.4-0.6,0.8c-0.1,0.3-0.2,0.7-0.3,1c-0.1,0.3-0.1,0.7-0.1,1.2l-0.7,12.8c0,0.5,0,1,0,1.4c0,0,0,0.1,0,0.2
		c0,0.5,0.2,0.9,0.4,1.2c0.3,0.3,0.7,0.5,1.2,0.4c0.4,0,0.8-0.1,1-0.3s0.5-0.5,0.6-0.8s0.2-0.7,0.3-1c0.1-0.3,0.1-0.7,0.1-1.2
		l0.7-12.8c0-0.5,0-0.9,0-1.3C509.8,498.3,509.8,498.2,509.7,498.1z M613,486.7c-0.1-0.3-0.3-0.8-0.5-1.3l-3.9-10.7
		c-0.2-0.5-0.3-0.9-0.5-1.2c-0.1-0.2-0.2-0.5-0.3-0.6c-0.3-0.4-0.6-0.7-1.1-0.7c-0.4,0-1,0.1-1.7,0.4l-0.7,0.4l6.5,17.6l0.8-0.4
		c0.4-0.2,0.8-0.4,1.1-0.7c0.3-0.2,0.4-0.5,0.5-0.7s0.1-0.6,0.1-0.9C613.2,487.4,613.1,487,613,486.7z M407.5,495.4l3.2-9.9l-5.7,9
		L407.5,495.4z M565.6,501.5l2.6-0.7l-3.1-10L565.6,501.5z M667.7,451.2c-0.2-0.3-0.4-0.6-0.7-1l-7.4-10.4c-0.3-0.4-0.5-0.7-0.8-1
		c-0.1-0.1-0.1-0.1-0.2-0.2c-0.3-0.4-0.7-0.6-1.1-0.6c-0.4-0.1-0.8,0.1-1.2,0.4c-0.3,0.3-0.5,0.6-0.6,0.9s-0.1,0.6,0,1
		s0.2,0.7,0.4,1s0.4,0.6,0.7,1l7.4,10.4c0.3,0.4,0.6,0.8,0.9,1.1l0.1,0.1c0.3,0.4,0.7,0.6,1.1,0.7c0.4,0.1,0.8-0.1,1.2-0.4
		c0.3-0.3,0.5-0.6,0.6-0.9s0.1-0.7,0-1S667.9,451.5,667.7,451.2z M485.3,496.6c-0.4,0-0.8,0.1-1,0.2c-0.3,0.2-0.5,0.4-0.7,0.7
		s-0.3,0.7-0.4,1s-0.2,0.7-0.2,1.2l-1.8,12.7c-0.1,0.5-0.1,1-0.1,1.4c0,0,0,0.1,0,0.2c0,0.5,0.1,0.9,0.3,1.2
		c0.3,0.3,0.6,0.5,1.2,0.5c0.4,0,0.8-0.1,1.1-0.2c0.3-0.2,0.5-0.4,0.7-0.7s0.3-0.7,0.4-1s0.2-0.7,0.2-1.2l1.8-12.7
		c0.1-0.4,0.1-0.9,0.1-1.3c0-0.1,0-0.2,0-0.3c0-0.5-0.1-0.9-0.4-1.2C486.3,496.8,485.9,496.6,485.3,496.6z M676.3,422.9
		c-0.6-0.5-1.1-0.9-1.6-1c-0.7-0.2-1.4,0.1-2.1,0.9l-1.1,1.2l4.9,5.6l0.9-1c0.8-0.8,1.1-1.6,1-2.4s-0.6-1.7-1.4-2.6
		C676.7,423.3,676.5,423.1,676.3,422.9z M786.4,412.7c-26.6-2.6-15.7-16.6-8.6-23.3c-0.1-0.1-0.1-0.2-0.1-0.2s-11.3-6.7-37.9-12.3
		c-0.6,1.9-1.2,3.7-1.9,5.6c8.3,1.5,16,3.4,22.9,5.6c0,0-8.6-0.8-24.3-1.7c-2.4,6.4-5.1,12.7-8.2,18.9c-13,26.2-31.6,49.7-55.1,69.7
		c-47.5,40.4-110.3,62.6-176.8,62.6c-66.6,0-129.4-22.2-176.8-62.6c-23.6-20-42.1-43.5-55.1-69.7c-0.1-0.2-0.2-0.4-0.3-0.5
		c-2.8-0.3-5.5-0.6-8.2-1c15.6-9.9,24.4-22.6,24.4-22.6c21.1,10.1,39.9,18.9,56.8,26.6c34.7,42.1,93.1,69.8,159.1,69.8
		c20.5,0,40.3-2.7,58.9-7.6c4.9-1,9.4-2.3,13.5-4.1c45.3-15.3,82.1-44.4,102.6-81.1c-25,0-54.7,0.7-88,2.6
		c-4.3-2.2-9.1-3.5-13.7-4.3c35.3-3.5,72.1-6,105.6-5.7c1.2-2.6,2.4-5.1,3.5-7.8c-40.9-1.7-96,1.2-168.2,14.2
		c-50.9,9.2-98.4,16.2-140.8,19.9c-42.7-20.6-78.7-36-78.7-36c6.7-10.1,16.3-23.8,27.5-51.6c26.7-15.7,45.9-38.5,55-50.7
		c33.4-2.1,72.4-7.1,117.7-15.9c53.1-10.2,97.6-17.5,135-22.2C551,264.4,510.8,342.7,510.8,342.7c-27,24.6-72.6,28.5-82,17.5
		s5.6-24.6,11.9-32.3c6.3-7.7,21.7-17,36.8-17s9.9,6.8,9.9,6.8c-16.4-1.9-19.4,5.2-19.4,5.2s-0.5,8.6,17.5,7s15.9-10.3,15.9-10.3
		c-6.1-18.7-53.8-7.9-53.8-7.9c-51,13.3-46.1,39.3-46.1,39.3c-3.1,4.2-18.2,11.7-18.2,11.7c-25.7,11.7-20.3,1.7-20.3,1.7
		s28.3-35.8,26.4-43.5s-19.6-7-19.6-7l-27.4,41.6c0,0-8.9,15.4,11.4,17.7c20.3,2.3,48.6-18.9,48.6-18.9
		c5.8,11.9,25.2,16.6,51.9,15.2c26.7-1.4,50.7-17.7,50.7-17.7c-8.4,15.4,18.2,13.5,18.2,13.5s22.9-42.8,52.3-54.3
		c29.4-11.5,5.4,14.9,1.7,19.9c-3.7,5.1-22.9,28-1.7,32.7c21.1,4.7,50.7-17.8,50.7-17.8s-10.3,13.3,10.5,15.6
		c20.8,2.3,45.6-15,45.6-15c14.5,13.3,37.2,11.9,37.2,11.9c38.4,0.2,42.3-12.2,42.8-16.4c0.5-4.2-3.5-10.5-17.3-19.7
		c-13.8-9.3-14.3-13.3-14.5-16.1c-0.2-2.8,5.8-6.8,19.4-7s16.1,7,16.1,7c-10-1.4-19.7,3.8-19.2,7c0.5,3.1,8,6.1,17.7,5.4
		s14.2-5.9,13.8-9.1c-0.3-3.1-4.2-10.7-28.5-11.9c-24.3-1.2-37.3,6.8-38,12.8s4.2,11.2,11.9,16.8c7.7,5.6,15.4,12.3,15.1,18.2
		c-0.2,5.8-11.7,11.4-29.1,9.8c-17.5-1.6-24-11.2-24-11.2s-9.5-11.2,17.2-16.5c8.2-1.6,3-4.4,3-4.4c-35.2,1.2-25.6,21.2-25.6,21.2
		c-23.5,15.8-32.9,11.2-32.9,11.2s3-9.6,15.4-24.7c12.3-15.1,11.7-20.3,11.7-20.3c-1.2-8.9-19.3-8.1-19.3-8.1l-25.6,38.2
		c-36.8,25.2-41.5,17.7-41.5,17.7s0.9-7,13-22.4s10.7-21,10.7-21c-0.9-25.6-55.9,1.9-55.9,1.9c30.7-48.8,62.1-76.8,92.1-91.6
		c9.7-1,18.8-1.8,27.5-2.5c-0.8-0.2-1.5-0.4-2.4-0.6c-1-1.6-1.9-3.1-2.8-4.7c-0.2-0.3-0.4-0.5-0.6-0.8c9.5-2.8,18.8-4.5,27.8-5.2
		c0.4,5-0.9,8.2-3.2,10.2c121.6-5,123.3,36.1,112,99.5c-1.1,6.1-2.1,11.6-3.2,16.7c0.9,0.1,47.9,6.6,73.6-11.1
		c25.9-17.8-23.6,45-23.6,45s-6.7,19.6,36.3,33C932.1,417.9,820.3,416.1,786.4,412.7z M692.4,284.3c0-4-6.9-7.2-15.5-7.2
		s-15.5,3.2-15.5,7.2s6.9,7.2,15.5,7.2S692.4,288.3,692.4,284.3z M377.1,296.3c0,4,6.9,7.2,15.5,7.2s15.5-3.2,15.5-7.2
		s-6.9-7.2-15.5-7.2S377.1,292.3,377.1,296.3z M337,434.4l-3.9-3.8l-14.3,8.3l10.3-12.3l-4-3.9l-20.8,17l2.7,2.7l14-11.4l-11.6,13.7
		l2.3,2.3l15.7-9.5L314,449.3l2.7,2.6L337,434.4z M331.9,459.6l5.6-5.8l3.3,2.6l2.8-2.9l-3.3-2.6l4.7-4.8l4.3,3.5l2.8-2.9l-8.4-6.7
		L325,459.3l8.5,6.8l2.8-2.8L331.9,459.6z M356.7,466.4L369,458l-3.7-2.5l-6.5,4.5l2.4-7.2l-4.1-2.8l-4.1,12.1l-13,8.6l3.7,2.4
		l7.3-4.8l-2.6,7.9l4.1,2.7L356.7,466.4z M364.8,486.3l15.3-22l-4.6-2.6l-15.3,22L364.8,486.3z M391.8,488.7l-4.6-2.2l-1.4,2.4
		c-0.2,0.4-0.4,0.7-0.5,0.9c-0.1,0.2-0.3,0.5-0.6,0.7c-0.2,0.3-0.5,0.5-0.7,0.6s-0.4,0.2-0.7,0.2c-0.3,0-0.6,0-0.9-0.2
		c-0.7-0.3-1-0.8-0.9-1.4c0-0.4,0.2-0.9,0.4-1.4c0.1-0.3,0.3-0.6,0.5-1l6.3-10.7c0.2-0.4,0.4-0.7,0.6-0.9c0.2-0.2,0.4-0.5,0.6-0.7
		c0.2-0.3,0.5-0.5,0.7-0.6s0.5-0.2,0.8-0.2s0.6,0,0.9,0.2c0.2,0.1,0.3,0.2,0.4,0.3s0.2,0.2,0.3,0.3c0.1,0.1,0.1,0.2,0.1,0.4
		c0,0.1,0,0.3,0,0.4s0,0.3-0.1,0.4c-0.1,0.2-0.1,0.3-0.1,0.4s-0.1,0.3-0.2,0.5s-0.2,0.4-0.3,0.5c-0.1,0.1-0.1,0.3-0.3,0.5l-1.3,2.3
		l4.6,2.2l1.2-2c0.3-0.5,0.5-0.9,0.7-1.4c0.1-0.3,0.3-0.6,0.4-0.9c0.3-0.7,0.4-1.5,0.5-2.1s-0.1-1.3-0.3-2c-0.2-0.6-0.7-1.2-1.3-1.7
		c-0.6-0.5-1.4-1-2.3-1.5c-1.2-0.6-2.4-0.9-3.4-0.9c-1.1,0-2,0.2-2.9,0.6c-0.9,0.5-1.7,1.1-2.5,1.9s-1.5,1.9-2.2,3.1l-4.8,8.2
		c-0.4,0.6-0.7,1.3-1,1.8c-0.1,0.3-0.3,0.6-0.4,0.9c-0.4,0.9-0.6,1.7-0.6,2.5s0,1.5,0.3,2.2s0.6,1.3,1.3,1.9
		c0.6,0.6,1.4,1.1,2.4,1.6c1.2,0.6,2.3,0.9,3.3,0.9s2-0.1,2.8-0.6s1.6-1,2.3-1.7c0.7-0.7,1.3-1.6,1.9-2.6L391.8,488.7z M416.5,480.1
		l-5.5-2l-15.8,22.7l4.7,1.7l3.2-4.9l3.4,1.2l-1.7,5.5l4.6,1.6L416.5,480.1z M440.6,487l-4.2-1.1l-4.5,12.3l-0.4-13.6l-3.6-0.9
		l-9.3,25.2l4.3,1.1l4.9-13.2v14.5l3.4,0.9L440.6,487z M471.5,492l-10.3-1.3l-5.9,26.2l5.2,0.7l2.6-11.7l4.4,0.6l0.9-4l-4.4-0.6
		l1.5-6.7l5.1,0.7L471.5,492z M491.2,494.9c-0.9-1.5-2.7-2.3-5.3-2.5c-2.6-0.1-4.6,0.5-5.9,1.9s-2.2,3.6-2.6,6.4l-1.4,9.8
		c-0.1,0.7-0.2,1.3-0.2,1.9c0,0.6,0,1.2,0,1.8c0.1,1.1,0.4,2,0.8,2.8s1.1,1.4,2,1.9s2,0.7,3.3,0.7c2.6,0.1,4.6-0.5,5.9-2
		c1.3-1.4,2.2-3.6,2.6-6.5l1.4-9.8c0.1-0.6,0.1-1.2,0.2-1.8C492.2,497.7,491.9,496.1,491.2,494.9z M515.1,499.1
		c-0.1-2-0.5-3.6-1.3-4.7c-1-1.4-2.9-2.1-5.5-2s-4.5,0.9-5.7,2.4s-1.9,3.7-2,6.6l-0.5,9.9c0,0.7,0,1.3,0,1.9c0,0.6,0.1,1.2,0.2,1.8
		c0.2,1,0.5,1.9,1,2.7s1.2,1.3,2.2,1.7c0.9,0.4,2.1,0.5,3.4,0.5c2.6-0.1,4.5-0.9,5.7-2.5c1.2-1.5,1.9-3.8,2-6.7l0.5-9.9
		C515.1,500.2,515.1,499.6,515.1,499.1z M538.3,508l-0.3-9.7c0-0.8-0.1-1.4-0.2-2.1c-0.1-0.7-0.2-1.3-0.3-1.8
		c-0.3-1-0.7-1.8-1.4-2.4c-0.6-0.6-1.5-1-2.5-1.2s-2.3-0.2-3.9,0l-6,0.8l0.9,26.8l6.1-0.8c1.5-0.2,2.8-0.5,3.8-1s1.8-1.1,2.4-1.9
		c0.6-0.8,1-1.8,1.2-2.8C538.3,510.8,538.3,509.5,538.3,508z M575.7,508.3l-9-25.2l-5.7,1.6l0.1,27.7l4.8-1.3l-0.2-5.9l3.5-0.9
		l1.8,5.4L575.7,508.3z M597.3,500.8l-6.9-25.9l-4.1,1.5l3.4,12.7l-8.1-10.9l-3.5,1.3l6.9,25.9l4.2-1.6l-3.6-13.6L594,502
		L597.3,500.8z M618.1,486.1c-0.1-1.1-0.5-2.4-1-3.8l-3.3-9.1c-0.3-0.7-0.5-1.3-0.8-1.9s-0.6-1.1-0.9-1.6c-0.6-0.9-1.3-1.5-2.1-1.9
		s-1.7-0.5-2.8-0.4c-1,0.2-2.3,0.6-3.7,1.3l-5.4,2.6l9.3,25.2l5.5-2.7c1.4-0.7,2.5-1.4,3.3-2.1s1.4-1.6,1.7-2.6
		C618.2,488.3,618.3,487.2,618.1,486.1z M655.7,468.4l-13.4-23.2l-4.5,3.1l5.4,15.7l-10.1-12.4l-4.6,3.2l12.8,23.6l3.1-2.2
		l-8.5-15.9l11.3,14l2.7-1.9l-6.3-17.3l9,15.4L655.7,468.4z M672.9,452c0-2-0.9-4.1-2.5-6.5l-5.7-8.1c-0.4-0.5-0.8-1-1.1-1.4
		c-1.3-1.5-2.6-2.5-4-2.8c-1.7-0.5-3.6,0.1-5.5,1.9c-2,1.7-3,3.5-2.9,5.5c0,1.9,0.9,4.1,2.6,6.5l5.7,8.1c0.4,0.6,0.8,1.1,1.2,1.5
		c0.4,0.5,0.8,0.9,1.3,1.3c0.8,0.7,1.6,1.2,2.5,1.5s1.8,0.3,2.7,0s1.9-0.9,2.9-1.8C671.9,455.8,672.9,453.9,672.9,452z M693.3,434.1
		l-11.1-7.1c0.4-1.3,0.4-2.5,0-3.7s-1.1-2.4-2.3-3.7c-0.3-0.3-0.6-0.6-0.8-0.9c-0.5-0.4-0.9-0.8-1.3-1c-0.7-0.4-1.4-0.7-2.1-0.8
		c-0.7-0.1-1.3,0-2,0.3s-1.3,0.6-2,1.1s-1.3,1.1-2,1.8l-4.4,4.7L683,445l3.6-3.8l-7.9-9l1.1-1.1l10,6.9L693.3,434.1z M706.4,417.9
		l-2.9-2.7l-3.4,4.4l-5.9-5.5l2.6-3.4l-3-2.8l-2.6,3.3l-4.9-4.6l3.4-4.4l-2.9-2.7l-6.6,8.5l19.6,18.3L706.4,417.9z M532.6,498.1
		c0-0.5,0-0.9-0.1-1.3c0-0.3-0.1-0.5-0.1-0.7c-0.1-0.5-0.4-0.8-0.8-1c-0.4-0.2-1-0.2-1.8-0.1H529l0.6,18.7l0.9-0.1
		c0.5-0.1,0.9-0.2,1.2-0.3s0.6-0.3,0.7-0.5c0.2-0.2,0.3-0.5,0.4-0.8c0.1-0.4,0.1-0.7,0.1-1.1c0-0.3,0-0.8,0-1.4L532.6,498.1z"/>
</g>
</svg>
